<?xml version="1.0" standalone="no"?>
<!DOCTYPE svg PUBLIC "-//W3C//DTD SVG 20010904//EN"
 "http://www.w3.org/TR/2001/REC-SVG-20010904/DTD/svg10.dtd">
<svg version="1.0" xmlns="http://www.w3.org/2000/svg"
 width="105.000000pt" height="105.000000pt" viewBox="0 0 105.000000 105.000000"
 preserveAspectRatio="xMidYMid meet">
<metadata>
Created by potrace 1.11, written by Peter Selinger 2001-2013
</metadata>
<g transform="translate(0.000000,105.000000) scale(0.100000,-0.100000)"
fill="#000000" stroke="none">
<path d="M589 1038 c-1 -7 0 -46 1 -86 2 -64 -1 -75 -24 -103 -22 -26 -26 -40
-26 -97 l0 -67 -29 45 c-41 65 -54 114 -49 181 4 50 2 59 -13 59 -9 0 -22 -7
-30 -16 -8 -10 -25 -14 -47 -12 -49 4 -52 -16 -8 -61 35 -36 37 -41 34 -97
l-3 -59 -39 58 c-60 89 -108 105 -163 54 -40 -36 -26 -96 44 -195 9 -13 11
-22 4 -22 -16 0 -13 -66 4 -80 31 -25 18 -47 -30 -53 -84 -9 -85 -11 -85 -248
0 -203 0 -208 22 -223 34 -24 712 -24 746 0 22 15 22 20 22 223 0 237 -1 239
-85 248 -48 6 -61 28 -30 53 17 14 21 80 5 80 -6 0 -8 11 -4 28 19 84 28 106
50 127 32 29 30 57 -4 77 -36 22 -62 8 -62 -34 0 -22 -10 -40 -37 -66 l-38
-36 -5 56 c-3 33 -12 64 -23 75 -13 15 -17 37 -17 95 0 42 -3 83 -6 92 -7 19
-73 22 -75 4z m51 -58 c0 -38 -4 -50 -15 -50 -11 0 -15 12 -15 50 0 38 4 50
15 50 11 0 15 -12 15 -50z m-210 -91 l0 -40 -24 28 c-23 26 -23 28 -5 31 10 2
19 8 19 13 0 5 2 9 5 9 3 0 5 -18 5 -41z m210 -12 c0 -13 9 -32 20 -42 16 -14
20 -31 20 -76 0 -52 -3 -60 -36 -93 -20 -20 -45 -36 -55 -36 -17 0 -19 8 -19
93 0 81 3 96 20 112 11 10 20 29 20 42 0 14 6 23 15 23 9 0 15 -9 15 -23z
m-360 -47 c17 -9 100 -131 100 -147 0 -4 10 -17 22 -30 l21 -23 -66 0 c-37 0
-67 3 -67 8 1 4 7 18 15 32 8 14 14 31 15 38 0 23 -19 12 -36 -19 -14 -28 -17
-30 -31 -17 -13 14 -12 20 7 58 15 29 18 46 11 53 -7 7 -16 -2 -28 -27 -16
-34 -18 -36 -30 -20 -20 28 -16 71 9 88 26 19 33 19 58 6z m564 -27 c-8 -6
-22 -20 -30 -30 -14 -17 -14 -17 -5 4 6 12 11 31 11 42 0 19 2 20 20 9 18 -12
19 -14 4 -25z m-340 -116 l37 -57 -45 0 c-39 0 -47 4 -64 31 -16 25 -18 38
-11 63 5 17 9 47 10 66 l0 35 18 -40 c10 -22 35 -66 55 -98z m282 0 c-3 -16
-6 -36 -6 -43 0 -11 -17 -14 -67 -14 -65 0 -66 0 -48 20 10 11 22 20 27 20 5
0 23 13 40 29 38 36 62 31 54 -12z m-226 -96 c0 -6 7 -11 15 -11 8 0 15 4 15
8 0 5 45 10 100 11 109 2 118 -3 84 -54 -16 -25 -11 -63 10 -77 6 -4 26 -8 44
-8 19 0 40 -8 52 -20 18 -18 20 -33 20 -196 0 -102 -4 -183 -10 -195 -10 -18
-25 -19 -365 -19 -340 0 -355 1 -365 19 -6 12 -10 93 -10 195 0 163 2 178 20
196 12 12 33 20 54 20 57 0 83 43 51 86 -8 10 -15 26 -15 35 0 14 19 16 150
18 100 2 150 -1 150 -8z"/>
<path d="M436 379 c-49 -39 -31 -104 49 -178 l47 -43 36 33 c77 72 100 116 82
159 -15 37 -60 56 -90 40 -17 -9 -29 -9 -47 -1 -34 16 -47 14 -77 -10z m78
-31 l16 -22 16 22 c32 46 94 13 80 -43 -7 -28 -50 -81 -77 -96 -15 -8 -25 -5
-45 10 -61 48 -87 107 -59 135 23 22 51 20 69 -6z"/>
</g>
</svg>
