<svg xmlns="http://www.w3.org/2000/svg" width="80" height="106" viewBox="0 0 80 106"><desc>  Created with Sketch.</desc><g id="Symbols" fill="none"><g id="menu" fill="#FFF"><g id="Group"><path d="M0 87.6C0 87.3 0.2 87 0.5 87 0.8 87 1 87.3 1 87.6L1 94.4C1 94.7 0.8 95 0.5 95 0.2 95 0 94.7 0 94.4L0 87.6Z" id="Shape"/><path d="M12 87.6C12 87.3 12.4 87 12.8 87 13.2 87 13.5 87.3 13.5 87.6L13.5 93.8 17.4 93.8C17.7 93.8 18 94.1 18 94.4 18 94.8 17.7 95 17.4 95L12.7 95C12.3 95 12 94.7 12 94.4L12 87.6 12 87.6Z" id="Shape"/><path d="M22 87.6C22 87.3 22.2 87 22.5 87 22.8 87 23 87.3 23 87.6L23 94.4C23 94.7 22.8 95 22.5 95 22.2 95 22 94.7 22 94.4L22 87.6Z" id="Shape"/><path d="M27 87.6C27 87.3 27.4 87 27.8 87 28.2 87 28.5 87.3 28.5 87.6L28.5 90.5 32.4 87.2C32.5 87.1 32.7 87 32.9 87 33.3 87 33.7 87.3 33.7 87.6 33.7 87.8 33.6 87.9 33.5 88L30.5 90.5 33.9 94C34 94.1 34 94.2 34 94.3 34 94.7 33.6 95 33.2 95 33 95 32.8 94.9 32.6 94.7L29.5 91.4 28.5 92.2 28.5 94.4C28.5 94.7 28.2 95 27.8 95 27.3 95 27 94.7 27 94.4L27 87.6Z" id="Shape"/><path d="M38 87.6C38 87.3 38.4 87 38.8 87L44.4 87C44.7 87 45 87.3 45 87.6 45 87.9 44.7 88.2 44.4 88.2L39.5 88.2 39.5 90.4 43.6 90.4C44 90.4 44.3 90.6 44.3 91 44.3 91.3 44 91.6 43.6 91.6L39.5 91.6 39.5 93.8 44.4 93.8C44.7 93.8 45 94.1 45 94.4 45 94.8 44.7 95 44.4 95L38.8 95C38.3 95 38 94.7 38 94.4L38 87.6Z" id="Shape"/><path d="M54 87.6C54 87.3 54.4 87 54.8 87L60.4 87C60.7 87 61 87.3 61 87.6 61 87.9 60.7 88.2 60.4 88.2L55.5 88.2 55.5 90.4 59.7 90.4C60 90.4 60.3 90.6 60.3 91 60.3 91.3 60 91.6 59.7 91.6L55.5 91.6 55.5 93.8 60.4 93.8C60.7 93.8 61 94.1 61 94.4 61 94.8 60.7 95 60.4 95L54.8 95C54.3 95 54 94.7 54 94.4L54 87.6Z" id="Shape"/><path d="M64 94.1L67 87.7C67.1 87.2 67.5 87 68 87 68.5 87 68.8 87.2 69.1 87.7L71.9 94.1C72 94.2 72 94.3 72 94.4 72 94.8 71.7 95 71.3 95 70.9 95 70.6 94.9 70.5 94.6L69.9 93.1 66.1 93.1 65.5 94.6C65.3 94.9 65.1 95 64.7 95 64.3 95 64 94.7 64 94.4 64 94.3 64 94.2 64 94.1ZM66.4 92.1L69.5 92.1 68 88.6 66.4 92.1Z" id="Shape"/><path d="M79.3 87C79.7 87 80 87.3 80 87.6 80 87.9 79.7 88.2 79.3 88.2L76.7 88.2 76.7 94.4C76.7 94.7 76.4 95 76 95 75.5 95 75.2 94.7 75.2 94.4L75.2 88.2 72.7 88.2C72.3 88.2 72 87.9 72 87.6 72 87.2 72.3 87 72.7 87L79.3 87Z" id="Shape"/><path d="M17 100.1C17 100.1 17.1 100 17.1 100L19.6 100C19.8 100 19.8 100.3 19.6 100.3L17.3 100.3 17.3 101.9 18.6 101.9C19.3 101.9 20 102.1 20 102.9 20 103.7 19.4 104 18.6 104L17.1 104C17.1 104 17 103.9 17 103.9L17 100.1ZM17.3 103.8L18.6 103.8C19.3 103.8 19.7 103.5 19.7 102.9 19.7 102.4 19.3 102.1 18.6 102.1L17.3 102.1 17.3 103.8 17.3 103.8Z" id="Shape"/><path d="M21.5 103.4C21.6 103.4 21.8 103.3 21.9 103.3 22 103.2 22.2 103.2 22.3 103.2 22.4 103.2 22.5 103.2 22.7 103.2L22.7 103.1C22.7 102.9 22.7 102.6 22.6 102.5 22.4 102.4 22.3 102.3 22 102.3 21.8 102.3 21.7 102.3 21.5 102.4 21.3 102.5 21.2 102.5 21.2 102.5 21.2 102.5 21.1 102.5 21.1 102.4 21.1 102.3 21.2 102.2 21.3 102.2 21.6 102 21.8 102 22.1 102 22.4 102 22.6 102.1 22.8 102.3 22.9 102.5 23 102.8 23 103.1L23 104.8C23 105 22.8 105 22.8 104.8L22.8 104.8C22.5 104.9 22.2 105 21.9 105 21.5 105 21 104.8 21 104.2 21 103.8 21.1 103.6 21.5 103.4ZM22 104.8C22.3 104.8 22.5 104.7 22.8 104.5L22.8 103.4C22.8 103.4 22.7 103.4 22.6 103.4 22.6 103.4 22.5 103.4 22.4 103.4 22.4 103.4 22.4 103.4 22.3 103.4 22.1 103.4 21.9 103.4 21.8 103.5 21.5 103.6 21.2 103.8 21.2 104.1 21.2 104.6 21.6 104.8 22 104.8Z" id="Shape"/><path d="M23 102.1C23 102 23.2 102 23.2 102.1L23.2 103.4 24.8 103.4 24.8 102.1C24.8 102 25 102 25 102.1L25 104.9C25 105 24.8 105 24.8 104.9L24.8 103.6 23.2 103.6 23.2 104.9C23.2 105 23 105 23 104.9L23 102.1Z" id="Shape"/><path d="M26.4 102.5C26.7 102.2 27.1 102 27.5 102 28 102 28.3 102.2 28.6 102.5 28.8 102.7 29 103.1 29 103.5 29 103.9 28.9 104.3 28.6 104.5 28.3 104.8 27.9 105 27.5 105 27.1 105 26.7 104.8 26.4 104.5 26.2 104.3 26 103.9 26 103.5 26 103.1 26.2 102.7 26.4 102.5ZM26.6 104.3C26.8 104.6 27.2 104.7 27.5 104.7 27.9 104.7 28.2 104.6 28.4 104.3 28.6 104.1 28.7 103.8 28.7 103.5 28.7 103.1 28.6 102.8 28.4 102.6 28.2 102.3 27.9 102.2 27.5 102.2 27.2 102.2 26.8 102.3 26.6 102.6 26.4 102.8 26.3 103.2 26.3 103.5 26.3 103.8 26.4 104.1 26.6 104.3Z" id="Shape"/><path d="M30 102.1C30 102 30.3 102 30.3 102.1L30.3 103C30.3 103.5 30.5 103.7 30.9 103.7 31.2 103.7 31.5 103.7 31.8 103.5L31.8 102.1C31.8 102 32 102 32 102.1L32 104.9C32 105 31.8 105 31.8 104.9L31.8 103.8C31.5 103.9 31.2 104 30.9 104 30.3 104 30 103.7 30 103L30 102.1 30 102.1Z" id="Shape"/><path d="M32 102.1C32 102 32.3 102 32.3 102.1L32.3 103.4 32.7 103.4 33.8 102.1C33.8 102 33.8 102 33.9 102 33.9 102 34 102 34 102.1 34 102.2 34 102.2 33.9 102.2L32.9 103.5 34 104.8C34 104.8 34 104.8 34 104.9 34 105 34 105 33.9 105 33.9 105 33.8 105 33.8 104.9L32.7 103.6 32.2 103.6 32.2 104.9C32.2 105 32 105 32 104.9L32 102.1 32 102.1Z" id="Shape"/><path d="M35 102.1C35 102 35.2 102 35.2 102.1L35.2 104.4 36.8 102.3 36.8 102.2C36.8 102 37 102 37 102.2L37 104.9C37 105 36.8 105 36.8 104.9L36.8 102.6 35.2 104.6 35.2 104.8C35.2 105 35 105 35 104.8L35 102.1Z" id="Shape"/><path d="M39.3 102.5C39.5 102.2 39.9 102 40.3 102 40.5 102 40.7 102 40.9 102.2 41 102.2 41 102.2 41 102.3 41 102.4 41 102.4 40.9 102.4 40.9 102.4 40.8 102.4 40.7 102.4 40.6 102.3 40.4 102.2 40.3 102.2 40 102.2 39.7 102.4 39.5 102.7 39.3 102.9 39.2 103.2 39.2 103.5 39.2 103.9 39.3 104.2 39.5 104.4 39.7 104.6 40 104.8 40.3 104.8 40.5 104.8 40.6 104.7 40.7 104.6 40.8 104.6 40.9 104.6 40.9 104.6 40.9 104.6 41 104.6 41 104.7 41 104.8 41 104.8 40.8 104.8 40.7 104.9 40.5 105 40.3 105 39.9 105 39.5 104.8 39.3 104.6 39.1 104.3 39 103.9 39 103.5 39 103.1 39.1 102.7 39.3 102.5Z" id="Shape"/><path d="M42.4 102.5C42.7 102.2 43.1 102 43.5 102 44 102 44.3 102.2 44.6 102.5 44.8 102.7 45 103.1 45 103.5 45 103.9 44.9 104.3 44.6 104.5 44.3 104.8 43.9 105 43.5 105 43.1 105 42.7 104.8 42.4 104.5 42.2 104.3 42 103.9 42 103.5 42 103.1 42.2 102.7 42.4 102.5ZM42.6 104.3C42.8 104.6 43.2 104.7 43.5 104.7 43.9 104.7 44.2 104.6 44.4 104.3 44.6 104.1 44.7 103.8 44.7 103.5 44.7 103.1 44.6 102.8 44.4 102.6 44.2 102.3 43.9 102.2 43.5 102.2 43.2 102.2 42.8 102.3 42.6 102.6 42.4 102.8 42.3 103.2 42.3 103.5 42.3 103.8 42.4 104.1 42.6 104.3Z" id="Shape"/><path d="M47 102.1C47 102 47 102 47.1 102L48 102C48.4 102 48.8 102.2 48.8 102.8 48.8 103.1 48.6 103.3 48.5 103.4 48.8 103.5 49 103.8 49 104.2 49 104.8 48.6 105 48.2 105L47.2 105C47.1 105 47 105 47 104.9L47 102.1 47 102.1ZM47.2 103.3L48 103.3C48.3 103.3 48.5 103.1 48.5 102.8 48.5 102.4 48.3 102.2 47.9 102.2L47.2 102.2 47.2 103.3ZM47.2 104.8L48.1 104.8C48.5 104.8 48.7 104.6 48.7 104.1 48.7 103.8 48.5 103.6 48.2 103.6L47.2 103.6 47.2 104.8Z" id="Shape"/><path d="M49 102.1C49 102 49.3 102 49.3 102.1L49.3 103.4 49.7 103.4 50.8 102.1C50.8 102 50.8 102 50.9 102 50.9 102 51 102 51 102.1 51 102.2 51 102.2 50.9 102.2L49.9 103.5 51 104.8C51 104.8 51 104.8 51 104.9 51 105 51 105 50.9 105 50.9 105 50.8 105 50.8 104.9L49.7 103.6 49.2 103.6 49.2 104.9C49.2 105 49 105 49 104.9L49 102.1 49 102.1Z" id="Shape"/><path d="M52.1 102C52.2 102 52.2 102 52.2 102.1L53 104.5 53.8 102.1C53.8 102 53.8 102 53.9 102 53.9 102 54 102 54 102.1 54 102.2 54 102.2 54 102.3L53.2 104.8C52.9 105.6 52.6 106 52.2 106 52 106 52 105.8 52.2 105.8 52.5 105.8 52.7 105.4 52.9 104.8L52 102.3C52 102.2 52 102.2 52 102.2 52 102.1 52.1 102 52.1 102Z" id="Shape"/><path d="M54.3 102.5C54.5 102.2 54.9 102 55.3 102 55.5 102 55.7 102 55.9 102.2 56 102.2 56 102.2 56 102.3 56 102.4 56 102.4 55.9 102.4 55.9 102.4 55.8 102.4 55.7 102.4 55.6 102.3 55.4 102.2 55.3 102.2 55 102.2 54.7 102.4 54.5 102.7 54.3 102.9 54.2 103.2 54.2 103.5 54.2 103.9 54.3 104.2 54.5 104.4 54.7 104.6 55 104.8 55.3 104.8 55.5 104.8 55.6 104.7 55.7 104.6 55.8 104.6 55.9 104.6 55.9 104.6 55.9 104.6 56 104.6 56 104.7 56 104.8 56 104.8 55.8 104.8 55.7 104.9 55.5 105 55.3 105 54.9 105 54.5 104.8 54.3 104.6 54.1 104.3 54 103.9 54 103.5 54 103.1 54.1 102.7 54.3 102.5Z" id="Shape"/><path d="M57.4 102.5C57.7 102.2 58.1 102 58.5 102 59 102 59.3 102.2 59.6 102.5 59.8 102.7 60 103.1 60 103.5 60 103.9 59.9 104.3 59.6 104.5 59.3 104.8 58.9 105 58.5 105 58.1 105 57.7 104.8 57.4 104.5 57.2 104.3 57 103.9 57 103.5 57 103.1 57.2 102.7 57.4 102.5ZM57.6 104.3C57.8 104.6 58.2 104.7 58.5 104.7 58.9 104.7 59.2 104.6 59.4 104.3 59.6 104.1 59.7 103.8 59.7 103.5 59.7 103.1 59.6 102.8 59.4 102.6 59.2 102.3 58.9 102.2 58.5 102.2 58.2 102.2 57.8 102.3 57.6 102.6 57.4 102.8 57.3 103.2 57.3 103.5 57.3 103.8 57.4 104.1 57.6 104.3Z" id="Shape"/><path d="M60 102.2C60 102.1 60.1 102 60.2 102 60.2 102 60.3 102 60.3 102.1L61.5 104.1 62.7 102.1C62.7 102 62.8 102 62.8 102 62.9 102 63 102 63 102.2L63 104.9C63 105 63 105 62.8 105 62.8 105 62.7 105 62.7 104.9L62.7 102.5C62.7 102.5 62.5 102.8 62.2 103.4 61.8 104 61.7 104.3 61.7 104.3 61.6 104.4 61.5 104.4 61.4 104.3L60.3 102.5 60.3 104.9C60.3 105 60.3 105 60.2 105 60.1 105 60 105 60 104.9L60 102.2 60 102.2Z" id="Shape"/><path d="M40 66L39.6 65.7C35.3 62.2 33.3 60.4 32 57.9 30.8 55.5 30.9 53.7 31.3 52.6 31.7 51.2 32.6 50.1 33.9 49.5 36.1 48.4 38.6 49.1 40 51 41.4 49.1 43.9 48.4 46.1 49.5 47.4 50.1 48.3 51.2 48.7 52.6 49.1 53.7 49.2 55.6 48 57.9 46.7 60.4 44.7 62.2 40.4 65.7L40 66ZM36 50.4C35.5 50.4 34.9 50.5 34.5 50.7 33.5 51.2 32.8 52 32.5 53 32.1 54.2 32.3 55.7 33.1 57.2 34.3 59.4 36.1 61.1 40 64.3 43.8 61.1 45.6 59.4 46.8 57.2 47.6 55.7 47.9 54.2 47.5 53 47.2 52 46.4 51.2 45.5 50.7 43.6 49.8 41.4 50.6 40.5 52.6L39.9 53.9 39.3 52.6C38.7 51.2 37.4 50.4 36 50.4Z" id="Shape"/><path d="M33.8 33.6C33.5 33.6 33.3 33.4 33.1 33.2L23.1 17.7C22.5 16.6 21.4 15.9 20.2 15.6 19 15.3 17.7 15.5 16.7 16.2 14.5 17.5 13.8 20.4 15.2 22.6L21.9 33.2C22.1 33.6 21.8 33.7 21.5 33.9 21.1 34.1 20.7 34 20.4 33.7L13.9 23.3C12.1 20.5 13 16.7 15.9 14.9 17.3 14.1 19 13.8 20.6 14.2 22.2 14.5 23.5 15.5 24.4 16.9L35 33.1C35.2 33.5 34.6 33.2 34.2 33.4 34.1 33.5 33.9 33.6 33.8 33.6" id="Fill-33_7_"/><path d="M16.8 28C16.7 28 16.5 28 16.4 27.9 16 27.8 15.9 27.3 16.1 26.9L19.6 20.4C19.7 20 20.2 19.9 20.6 20.1 21 20.3 21.1 20.7 20.9 21.1L17.4 27.6C17.3 27.9 17 28 16.8 28" id="Fill-34_7_"/><path d="M19.8 33C19.7 33 19.5 33 19.4 32.9 19 32.8 18.9 32.3 19.1 31.9L22.6 25.4C22.7 25 23.2 24.9 23.6 25.1 24 25.3 24.1 25.7 23.9 26.1L20.4 32.6C20.3 32.9 20 33 19.8 33" id="Fill-35_7_"/><path d="M43.2 35C42.9 35 42.7 34.8 42.5 34.5 41.4 32.2 39.5 28.9 38.2 26.9 36.2 24 34.2 20.9 33.2 16.8 33.2 16.7 33.2 16.6 33.2 16.6 33 16.5 32.8 16.5 32.6 16.5 32.4 16.6 32.2 16.6 32.1 16.8 32.1 16.9 32.1 17 32.1 17.1 32.8 20.3 31.2 25.5 30.7 27.4 30.6 27.7 30.5 28 30.5 28 30.5 28.4 30.1 28.7 29.8 28.7 29.3 28.7 29 28.4 29 27.9 29 27.8 29 27.6 29.2 27 29.8 25.1 31.2 20.2 30.7 17.4 30.6 17.1 30.6 16.9 30.5 16.6 30.5 16.4 30.5 16.2 30.7 15.9 31.1 15.5 31.7 15.1 32.3 15 32.9 14.9 33.6 15 34.2 15.4 34.4 15.5 34.5 15.6 34.6 15.9 34.6 16.1 34.6 16.2 34.7 16.4 35.6 20.3 37.5 23.1 39.5 26.1 40.9 28.1 42.8 31.4 43.9 34 44.1 34.3 43.9 34.8 43.6 35 43.4 35 43.2 34.5 43.1 34.5" id="Fill-36_7_"/><path d="M31.3 17C31 17 30.7 16.8 30.6 16.4 30 14.3 29.2 13.6 28.1 12.7 27.1 11.9 26 11 25.1 9.1 25 8.9 25 8.6 25.1 8.4 25.2 8.2 25.5 8.1 25.7 8.1 25.8 8.1 27.4 8.1 30.1 8.8 30.8 7.9 32.2 6.4 34.1 6 34.4 5.9 34.7 6.1 34.9 6.3 35 6.6 35 6.9 34.9 7.1 34.8 7.3 33.4 10 34.6 15.6 34.6 16 34.4 16.4 34 16.5 33.6 16.6 33.2 16.3 33.1 15.9 32.3 12.2 32.6 9.6 33 8.1 32.1 8.6 31.4 9.4 30.9 10.1 30.8 10.4 30.4 10.5 30.1 10.4 28.9 10 27.8 9.8 27.1 9.7 27.7 10.5 28.3 11 28.9 11.5 30.1 12.5 31.3 13.5 32 16 32.1 16.4 31.8 16.8 31.4 17 31.4 17 31.3 17 31.3 17" id="Fill-37_7_"/><path d="M30.7 17C30.6 17 30.4 16.9 30.3 16.8 29.9 16.6 29.9 16.1 30.2 15.9 30.6 15.4 31.1 15.1 31.7 15 32.3 14.9 33 15 33.6 15.3 34 15.5 34.1 15.9 33.9 16.2 33.7 16.6 33.3 16.7 32.9 16.5 32.6 16.3 32.3 16.3 32 16.3 31.7 16.4 31.5 16.5 31.3 16.8 31.1 16.9 30.9 17 30.7 17" id="Fill-38_7_"/><path d="M61.4 23C61.3 23 61.1 23 61 22.9 60.7 22.7 60.6 22.2 60.8 21.8L61.8 20.1C62.3 19.2 63 18.7 63.8 18.7 64.1 18.6 64.4 18.5 64.5 18.1 64.7 17.8 64.6 17.3 64.3 17.1 64.2 17 64 16.9 63.9 16.9 63.4 16.8 62.8 16.4 62.5 15.9 62.4 15.8 62.3 15.7 62.2 15.6 61.8 15.4 61.4 15.5 61.2 15.9 61 16.1 60.9 16.5 61.1 16.8 61.4 17.6 61.3 18.6 60.8 19.4L59.3 22.2C59.1 22.5 58.6 22.6 58.3 22.4 58 22.2 57.9 21.7 58.1 21.4L59.6 18.6C59.9 18.2 59.9 17.8 59.8 17.4 59.5 16.6 59.6 15.6 60.1 14.9 60.7 14.1 61.8 13.8 62.7 14.2 63.1 14.4 63.4 14.7 63.6 15 63.7 15.2 63.9 15.3 64.1 15.3 64.5 15.4 64.9 15.6 65.2 15.9 66 16.6 66.2 17.7 65.8 18.8 65.4 19.6 64.7 20.2 63.9 20.2 63.5 20.3 63.2 20.5 63 20.9L62 22.7C61.8 22.9 61.6 23 61.4 23" id="Fill-39_7_"/><path d="M59.2 21.8C59.2 21.8 59.2 21.9 59.1 22 59.2 21.9 59.2 21.8 59.2 21.8ZM46.7 34C46.7 34 46.7 34 46.6 34 46.2 34 46 33.6 46 33.2 46.2 31.8 46.8 30.4 47.4 29.7 48.2 28.6 49.8 27.6 51.7 26.3 53.8 24.9 56.2 23.3 57.9 21.3 57.9 21.3 57.9 21.2 58 21.2 58.2 21 58.5 20.9 58.7 21 59 21.1 59.2 21.4 59.2 21.7L59.2 22.5 60.9 21.6C61.2 21.4 61.5 21.4 61.7 21.6 62 21.8 62.1 22.1 62 22.4 61.3 24.6 60.7 27.9 60.2 30.6 60 31.5 59.8 32.3 59.7 33.1 59.6 33.5 59.2 33.7 58.8 33.7 58.4 33.6 58.2 33.2 58.3 32.8 58.4 32.1 58.6 31.3 58.7 30.3 59.1 28.2 59.6 25.8 60.1 23.8L58.9 24.4C58.7 24.5 58.4 24.5 58.2 24.4 58 24.3 57.8 24.1 57.8 23.8L57.8 23.5C56.2 25 54.3 26.3 52.5 27.5 50.8 28.6 49.3 29.7 48.6 30.6 48.1 31.2 47.6 32.2 47.5 33.4 47.4 33.7 47.1 34 46.7 34Z" id="Fill-40_7_"/><path d="M41.8 32C41.3 32 41 31.7 41 31.2L41 19C41 16.2 43.1 14.2 44.3 13.5L44.3 3.5C44.1 3.2 44 2.8 44 2.4 44 1.9 44.1 1.6 44.3 1.3 44.3 0.6 44.9 0 45.6 0L48.4 0C49.1 0 49.7 0.6 49.7 1.3 49.9 1.6 50 1.9 50 2.4 50 2.8 49.9 3.2 49.7 3.5L49.7 13.5C50.9 14.2 53 16.2 53 19L53 27.5C53 27.9 52.7 28.2 52.2 28.2 51.8 28.2 51.5 27.9 51.5 27.5L51.5 19C51.5 16.4 49.1 14.8 48.7 14.7 48.4 14.6 48.2 14.3 48.2 14L48.2 3.2C48.2 2.9 48.3 2.7 48.4 2.6 48.4 2.6 48.5 2.5 48.5 2.3 48.5 2.2 48.4 2.1 48.4 2.1 48.2 1.9 48.1 1.7 48.1 1.5L45.8 1.5C45.8 1.7 45.7 1.9 45.5 2.1 45.5 2.1 45.5 2.2 45.5 2.3 45.5 2.5 45.5 2.5 45.5 2.6 45.7 2.7 45.8 2.9 45.8 3.2L45.8 14C45.8 14.3 45.6 14.6 45.3 14.7 44.9 14.8 42.5 16.5 42.5 19L42.5 31.3C42.5 31.7 42.2 32 41.8 32" id="Fill-41_7_"/><path d="M48.3 11L45.7 11C45.3 11 45 10.5 45 10 45 9.5 45.3 9 45.7 9L48.3 9C48.7 9 49 9.5 49 10 49 10.5 48.7 11 48.3 11" id="Fill-42_7_"/><path d="M64.7 78L14.3 78C11.9 78 10 76 10 73.5L10 47.6C10 44.9 11.9 42.8 14.5 42.5L19.2 42C19.6 42 19.9 41.6 19.9 41.2L19.9 39C19.9 38.8 19.8 38.6 19.7 38.6L19.2 38.3C18.2 37.7 17.7 36.7 17.7 35.6L17.7 33.4C17.7 32.6 18.3 32 19 32L60 32C60.8 32 61.4 32.6 61.4 33.4L61.4 35.6C61.4 36.7 60.8 37.7 59.9 38.3L59.4 38.6C59.3 38.6 59.1 38.8 59.1 39L59.1 41.2C59.1 41.6 59.5 42 59.9 42L64.5 42.5C67.1 42.8 69 45 69 47.6L69 73.5C69 76 67.1 78 64.7 78ZM19.2 33.5L19.2 35.6C19.2 36.2 19.4 36.7 19.9 37L20.4 37.3C21 37.6 21.4 38.3 21.4 39L21.4 41.2C21.4 42.4 20.5 43.4 19.3 43.6L14.7 44.1C12.9 44.2 11.5 45.8 11.5 47.6L11.5 73.5C11.5 75.2 12.8 76.5 14.3 76.5L64.7 76.5C66.3 76.5 67.5 75.2 67.5 73.5L67.5 47.6C67.5 45.7 66.2 44.2 64.4 44L59.8 43.5C58.6 43.4 57.7 42.4 57.7 41.2L57.7 39C57.7 38.3 58.1 37.6 58.7 37.2L59.2 36.9C59.6 36.6 59.9 36.1 59.9 35.6L59.9 33.5 19.2 33.5 19.2 33.5Z" id="Shape"/></g></g></g></svg>