<svg width="112" height="165" xmlns="http://www.w3.org/2000/svg"><g fill="none"><path d="M.143 137.978c0-.534.477-.934 1-.934.573 0 1.002.4 1.002.934v10c0 .489-.477.933-1.001.933-.572 0-1.001-.4-1.001-.933v-10zm16.537 0c0-.534.477-.934 1.002-.934.572 0 1 .4 1 .934v9.11h5.243c.477 0 .858.4.858.845 0 .49-.381.845-.858.845h-6.291c-.572 0-1-.445-1-.934v-9.866h.047zm13.393 0c0-.534.477-.934 1.001-.934.572 0 1 .4 1 .934v10c0 .489-.476.933-1 .933-.572 0-1-.4-1-.933v-10zm8.293 0c0-.534.477-.934 1-.934.573 0 1.002.4 1.002.934v4.31l5.1-4.932c.19-.223.428-.312.714-.312.524 0 1.001.445 1.001.934 0 .222-.095.444-.238.622l-3.956 3.644 4.432 5.2c.143.134.19.312.19.534 0 .489-.476.933-1 .933-.334 0-.62-.133-.905-.444l-4.1-4.89-1.238 1.156v3.29c0 .488-.477.933-1.001.933-.572 0-1.001-.4-1.001-.934v-10.044zm14.584.133c0-.489.476-.933 1-.933h7.436c.476 0 .857.4.857.844a.864.864 0 0 1-.857.845h-6.387v3.244h5.481c.477 0 .858.356.858.845 0 .488-.381.844-.858.844H55v3.289h6.386c.476 0 .857.4.857.844 0 .49-.38.845-.857.845H53.95c-.572 0-1.001-.445-1.001-.934v-9.733zm23.067 0c0-.489.477-.933 1-.933h7.436c.476 0 .858.4.858.844a.864.864 0 0 1-.858.845h-6.387v3.244h5.481c.477 0 .858.356.858.845 0 .488-.381.844-.858.844h-5.48v3.289h6.386c.476 0 .858.4.858.844 0 .49-.382.845-.858.845h-7.435c-.572 0-1.001-.445-1.001-.934v-9.733zm13.773 9.467l3.956-9.556c.239-.666.715-.978 1.43-.978.667 0 1.144.312 1.43.978l3.908 9.556c.048.178.095.355.095.444 0 .534-.429.89-1 .89-.525 0-.858-.223-1.001-.668l-.858-2.088h-5.195l-.858 2.088c-.143.445-.477.667-1 .667-.573 0-.954-.4-.954-.844-.095-.178-.048-.311.048-.49zm3.241-2.978h4.147l-2.05-5.156-2.097 5.156zm17.778-7.422c.476 0 .905.4.905.844 0 .445-.381.845-.905.845h-3.384v9.11c0 .49-.477.934-1.001.934-.572 0-1.001-.4-1.001-.933v-9.111h-3.432c-.476 0-.857-.356-.857-.845s.38-.844.857-.844h8.818zm-88.475 19.047c0-.113.096-.225.191-.225h3.343c.19 0 .19.394 0 .394h-3.152v2.531h1.815c.907 0 1.814.394 1.814 1.688 0 1.237-.86 1.687-1.814 1.687h-2.006c-.095 0-.19-.112-.19-.225v-5.85zm.382 5.738h1.815c.86 0 1.432-.45 1.432-1.35 0-.844-.573-1.294-1.48-1.294h-1.815v2.644h.048zm5.157-1.857c.143-.056.334-.112.525-.169.191-.056.382-.056.526-.056.143 0 .334-.056.62-.056v-.113c0-.393-.047-.73-.238-.9-.144-.225-.382-.337-.717-.337a1.72 1.72 0 0 0-.764.169c-.19.112-.334.168-.382.168-.047 0-.143-.056-.143-.168 0-.113.096-.225.334-.338.287-.169.621-.225 1.003-.225.43 0 .764.169 1.003.45.19.281.286.675.286 1.125v2.531c0 .225-.334.225-.334 0v-.112a2.004 2.004 0 0 1-1.146.337c-.62 0-1.29-.337-1.29-1.18 0-.563.24-.9.717-1.126zm.669 1.969c.382 0 .716-.112 1.05-.338v-1.63h-.668c-.287.055-.478.055-.717.168-.43.169-.716.394-.716.844-.048.675.43.956 1.05.956zm2.53-3.825c0-.225.335-.225.335 0v1.8h2.387v-1.8c0-.225.334-.225.334 0v3.938c0 .225-.334.225-.334 0v-1.8h-2.387v1.8c0 .225-.335.225-.335 0v-3.938zm4.632.45c.334-.45.812-.675 1.337-.675.573 0 1.003.225 1.337.675.334.394.525.9.525 1.519 0 .619-.143 1.125-.525 1.519-.334.45-.812.675-1.337.675a1.624 1.624 0 0 1-1.337-.675c-.334-.394-.525-.9-.525-1.52 0-.562.19-1.124.525-1.518zm.19 2.813c.287.393.67.562 1.1.562.477 0 .81-.169 1.145-.563.239-.337.382-.787.382-1.293 0-.506-.143-.9-.382-1.238-.286-.394-.668-.562-1.146-.562-.43 0-.812.168-1.098.562a2.188 2.188 0 0 0-.382 1.238c0 .506.143.956.382 1.294zm3.964-3.263c0-.225.334-.225.334 0v1.237c0 .732.287 1.07.908 1.07.382 0 .716-.113 1.098-.282v-2.025c0-.225.334-.225.334 0v3.938c0 .225-.334.225-.334 0v-1.575a2.519 2.519 0 0 1-1.146.28c-.812 0-1.242-.45-1.242-1.405v-1.238h.048zm3.963 0c0-.225.335-.225.335 0v1.8h.572l1.48-1.856c.048-.056.096-.113.144-.113.095 0 .143.057.143.169 0 .056-.048.112-.048.169l-1.432 1.8 1.48 1.856c.048.056.048.112.048.169 0 .112-.048.168-.143.168-.048 0-.096-.056-.191-.112l-1.48-1.856h-.621v1.8c0 .225-.334.225-.334 0v-3.994h.047zm3.534 0c0-.225.334-.225.334 0v3.263l2.578-2.982v-.281c0-.225.335-.225.335 0v3.938c0 .225-.335.225-.335 0v-3.263l-2.578 2.981v.225c0 .225-.334.225-.334 0v-3.881zm6.732.619c.335-.506.86-.731 1.433-.731.334 0 .62.056.907.225.143.056.191.112.191.225 0 .056-.048.168-.143.168-.048 0-.096-.056-.239-.112a1.668 1.668 0 0 0-.716-.169c-.43 0-.86.225-1.194.619-.239.337-.334.731-.334 1.181 0 .563.143 1.012.43 1.35.286.338.668.506 1.098.506.286 0 .525-.056.716-.169.143-.056.191-.112.239-.112.047 0 .143.056.143.169 0 .112-.048.112-.239.225-.239.112-.525.225-.86.225-.572 0-1.05-.225-1.384-.619-.334-.394-.477-.9-.477-1.575 0-.563.143-1.069.43-1.406zm3.773-.169c.334-.45.811-.675 1.336-.675.573 0 1.003.225 1.337.675.335.394.526.9.526 1.519 0 .619-.144 1.125-.526 1.519-.334.45-.811.675-1.337.675a1.624 1.624 0 0 1-1.337-.675c-.334-.394-.525-.9-.525-1.52.048-.562.239-1.124.525-1.518zm.238 2.813a1.3 1.3 0 0 0 1.098.562c.478 0 .812-.169 1.146-.563.24-.337.382-.787.382-1.293 0-.506-.143-.9-.382-1.238-.286-.394-.668-.562-1.146-.562-.43 0-.811.168-1.098.562a2.188 2.188 0 0 0-.382 1.238c0 .506.143.956.382 1.294zm5.969-3.15c0-.113.048-.17.19-.17H65.5c.621 0 1.194.338 1.194 1.07 0 .393-.191.73-.477.9.525.112.811.506.811 1.068 0 .788-.525 1.125-1.241 1.125h-1.48c-.096 0-.191-.056-.191-.168v-3.825h-.048zm.334 1.687h1.146c.43 0 .764-.281.764-.787 0-.507-.382-.788-.86-.788h-1.05v1.575zm0 1.969h1.242c.573 0 1.002-.281 1.002-.844 0-.45-.334-.787-.86-.787h-1.384v1.63zm3.629-3.769c0-.225.334-.225.334 0v1.8h.573l1.48-1.856c.048-.056.096-.113.144-.113.095 0 .143.057.143.169 0 .056 0 .112-.048.169l-1.432 1.8 1.48 1.856c.048.056.048.112.048.169 0 .112-.048.168-.144.168-.047 0-.095-.056-.19-.112l-1.48-1.856h-.622v1.8c0 .225-.334.225-.334 0v-3.994h.048zm3.151-.169c.096 0 .144.057.191.113l1.385 3.825L74 158.25c.047-.112.095-.169.19-.169.096 0 .192.057.192.225 0 .056 0 .113-.048.225l-1.385 4.05c-.43 1.238-.907 1.913-1.671 1.913-.239 0-.239-.394 0-.394.62 0 .955-.563 1.29-1.519l-1.529-4.05c-.048-.112-.048-.169-.048-.169 0-.168.096-.28.191-.28zm4.011.788c.335-.506.86-.731 1.433-.731.334 0 .62.056.907.225.143.056.191.112.191.225 0 .056-.048.168-.143.168-.048 0-.096-.056-.239-.112a1.668 1.668 0 0 0-.716-.169c-.43 0-.86.225-1.194.619-.239.337-.334.731-.334 1.181 0 .563.143 1.012.43 1.35.286.338.668.506 1.098.506.286 0 .525-.056.716-.169.143-.056.191-.112.239-.112.048 0 .143.056.143.169 0 .112-.048.112-.239.225-.238.112-.525.225-.86.225-.572 0-1.05-.225-1.384-.619-.334-.394-.477-.9-.477-1.575 0-.563.143-1.069.43-1.406zm3.772-.169c.335-.45.812-.675 1.337-.675.573 0 1.003.225 1.337.675.335.394.526.9.526 1.519 0 .619-.144 1.125-.526 1.519-.334.45-.811.675-1.337.675a1.624 1.624 0 0 1-1.337-.675c-.334-.394-.525-.9-.525-1.52.048-.562.239-1.124.525-1.518zm.24 2.813c.286.393.668.562 1.097.562.478 0 .812-.169 1.146-.563.24-.337.382-.787.382-1.293 0-.506-.143-.9-.382-1.238-.286-.394-.668-.562-1.146-.562-.43 0-.811.168-1.098.562a2.188 2.188 0 0 0-.382 1.238c0 .506.143.956.382 1.294zm4.01-3.207c0-.112.096-.225.191-.225.048 0 .143.057.191.113l1.48 2.869 1.48-2.87c.048-.055.096-.112.192-.112.095 0 .19.057.19.225v3.881c0 .113-.047.17-.19.17-.096 0-.144-.057-.144-.17v-3.375s-.238.45-.668 1.294c-.43.844-.669 1.238-.669 1.294-.095.169-.238.169-.334 0l-1.337-2.588v3.375c0 .113-.048.17-.143.17-.096 0-.191-.057-.191-.17v-3.88h-.048z" fill="#1E1C1C" fill-opacity=".8"/><path d="M59.618 62.787c-3.236-8.285-10.87-14.655-12.753-23.802-.049-.288-.097-.527-.145-.767-.532-.335.193-.91-.387-.814-.58.144-1.207.335-1.594.814.097.336.145.719.242 1.102.483 2.826.338 6.322-.677 10.44-.82 3.257-1.449 4.12-1.884 8.43l2.609 3.975 2.367.718 7.247.575 4.589-.144.386-.527z" fill="#EBF4FB"/><path d="M45.029 45.785c2.947 5.795 7.488 11.255 10.097 18.104l3.285-2.826c-3.14-8.285-9.71-12.93-11.546-22.078-.049-.288-.097-.527-.145-.767-.532-.335.193-.91-.387-.814-.531.144-1.207.383-1.594.862.097.336.145.719.193 1.102.339 1.868.435 3.975.097 6.417" fill="#D7EAF9"/><path d="M46.333 37.692c-1.546-8.286-.096-12.261 0-12.405-1.884.431-3.816 2.156-4.927 3.928-3.527-1.198-3.285-1.198-3.285-1.198 2.415 5.316 5.41 4.406 6.86 10.297l1.352-.622" fill="#5FBAE9"/><path d="M82.807 61.782l-4.01 1.772-1.45-.815-4.105.288-5.556.718c0-1.34.821-2.873 1.208-3.496 2.077-3.352 10.338-6.992 14.879-12.356l.097 1.676.048 1.245 1.208-.718c-1.015 3.927-1.546 7.902-2.32 11.686z" fill="#F6871F"/><path d="M85.464 49.33a5.756 5.756 0 0 0-.242.862c-1.11 3.831-1.642 7.806-2.367 11.59l-2.657 2.634-.87-1.054c.725-3.544 2.03-9.818 2.996-13.458l1.642-.287 1.111-.623c.194-.096.435.096.387.336" fill="#F26722"/><path d="M70.391 36.494c-.676-.67-1.304-1.005-1.594-1.101V20.45c.29-.24.435-.622.435-1.101 0-.288-.048-.91-.193-1.102h-3.382a.658.658 0 0 0-.676.67c0 .096.048.24.096.336-.29.191-.531.622-.531 1.197 0 .48.193.91.435 1.102v14.415a.763.763 0 0 1-.387.67c-2.367 1.342-4.251 3.162-4.251 6.754v19.3h4.976c.628-2.681 2.56-4.98 4.493-6.704 1.304-1.198 2.657-2.108 3.671-2.778V42.337c0-2.586-1.497-4.598-2.85-5.747-.097-.048-.193-.096-.242-.096z" fill="#EE2635"/><path d="M73.483 42.337V53.64s-1.69.862-3.671 2.394V42.337c0-2.873-1.884-5.029-3.334-6.13-.241-.144-.338-.431-.338-.718V18.247h2.899c.096.192.193.814.193 1.102 0 .479-.193.91-.435 1.101v14.943c.338.096.918.43 1.594.958.097.047.145.143.242.191 1.353 1.197 2.85 3.209 2.85 5.795" fill="#C3203A"/><path d="M41.986 63.554l-.677.335-6.473-.719-4.59-.478-6.038-9.579-3.285-5.22c-2.223-3.496-1.16-8.142 2.415-10.297.193-.096.387-.24.58-.335a6.855 6.855 0 0 1 2.319-.719 7.552 7.552 0 0 1 5.41 3.448l12.899 20.163.918 1.724-3.478 1.677z" fill="#FEDA00"/><path d="M45.657 62.308l-3.671 1.294v-.048L26.913 39.943a7.762 7.762 0 0 0-2.995-2.73l-1.015-.431c1.111-.336 2.223-.48 3.334-.288a7.552 7.552 0 0 1 5.41 3.449l12.899 20.162.918 1.725.193.478" fill="#FEBC11"/><path d="M86.623 46.36l1.933-2.634c.483-.766.966-.24 1.884-.287.82-.048 1.594-.527 1.932-1.341.435-.91.145-2.06-.628-2.682-.338-.288-.773-.431-1.16-.527-.53-.048-1.304-.91-1.739-1.102-.917-.43-1.159-.622-1.787.192-.58.718-.676 1.58-.338 2.347.386.862.241 1.82-.242 2.586l-2.947 4.885 1.401.24 1.691-1.677" fill="#F2F2F2"/><path d="M28.942 70.546c-1.594-.91-2.657-3.257-3.14-7.184H35.85l6.619.766h36.715c.145.096.87-1.532 0-.766 3.623-.479 5.893-.479 6.715 0 .628.383.628 1.676 0 3.831.29-.191-3.334 4.215-3.334 4.502l4.638 37.453c.145 8.38-6.667 15.23-15.073 15.23H40.585c-8.455 0-21.74 2.059-21.546-6.322v-39.8c5.99-1.245 9.082-1.82 9.275-1.723 2.029-3.113 2.222-5.125.628-5.987z" fill="#FEC369"/><path d="M94.256 78.448l-3.913-.91c-.145.096-3.43-.67-3.575-.766l-3.623-.431v38.027c.145 7.902-5.362 8.285-12.754 10.01h11.256c8.454 0 15.7.861 15.556-7.52v-32.71c-.097-.288-2.705-5.891-2.947-5.7z" fill="#FAAF46"/><path d="M55.705 107.184c5.846-4.502 8.793-6.992 10.677-10.297 2.657-4.646 1.062-8.62-2.32-10.153-3.14-1.437-6.907-.096-8.357 3.065-1.449-3.113-5.217-4.502-8.357-3.065-3.382 1.532-4.976 5.507-2.319 10.153 1.884 3.352 4.83 5.843 10.676 10.297" fill="#FFF"/><path d="M56.865 107.184c5.265-4.071 7.97-6.322 9.662-9.34 2.415-4.214.29-9.674-2.754-11.11-2.85-1.293-7.633 2.203-8.213 2.873-1.642-1.532-4.106-1.963-6.28-1.005-3.043 1.388-4.493 4.98-2.077 9.195 1.69 3.065 4.396 5.364 9.662 9.387" fill="#EE2635"/><path d="M50.005 87.165a5.16 5.16 0 0 0-2.222.479c-1.353.622-2.368 1.724-2.802 3.065-.532 1.676-.242 3.64.918 5.651 1.739 3.065 4.492 5.412 9.758 9.483 5.507-4.215 8.116-6.561 9.758-9.483 1.16-2.011 1.498-3.975.918-5.651-.434-1.341-1.4-2.443-2.802-3.065-.676-.336-1.449-.48-2.222-.48a5.344 5.344 0 0 0-4.782 3.018c-.194.383-.532.623-.967.623-.386 0-.773-.24-.966-.623-.676-1.82-2.56-3.017-4.59-3.017zm5.7 21.073c-.241 0-.434-.096-.628-.24-6.183-4.741-9.034-7.232-10.966-10.632-1.836-3.209-1.594-5.747-1.111-7.328.628-1.915 1.98-3.4 3.913-4.31a7.636 7.636 0 0 1 3.092-.67c2.222 0 4.348 1.005 5.7 2.73 1.401-1.677 3.479-2.73 5.7-2.73a7.64 7.64 0 0 1 3.093.67c1.884.862 3.285 2.395 3.913 4.31.531 1.58.724 4.12-1.111 7.328-1.933 3.352-4.783 5.89-10.967 10.632-.145.192-.386.24-.628.24zm-10.29-45.163c-.338 0-.676-.192-.87-.48L30.537 40.9c-.918-1.484-2.367-2.49-4.058-2.873a6.448 6.448 0 0 0-4.879.814c-3.043 1.868-3.961 5.89-2.077 8.908l9.372 14.895c.29.479-.145.622-.628.958-.483.287-1.16.143-1.45-.336l-9.082-14.368c-2.512-3.975-1.304-9.243 2.754-11.733a8.53 8.53 0 0 1 6.473-1.054c2.223.527 4.155 1.868 5.363 3.784l14.686 22.7c.29.48-.483.097-1.015.384a2.433 2.433 0 0 1-.58.096" fill="#231F20"/><path d="M21.937 54.55a1.73 1.73 0 0 1-.483-.096.986.986 0 0 1-.435-1.389l4.783-9.195c.241-.527.918-.719 1.4-.431.532.24.726.91.436 1.389l-4.783 9.195a1.037 1.037 0 0 1-.918.527m4.976 7.95a1.73 1.73 0 0 1-.483-.096.986.986 0 0 1-.435-1.389l4.783-9.195c.241-.527.918-.718 1.4-.431.532.24.725.91.436 1.389l-4.783 9.195c-.145.288-.531.527-.918.527m32.56 1.245c-.386 0-.773-.24-.966-.622-1.497-3.305-4.203-7.759-6.038-10.489-2.754-4.07-5.653-8.285-6.957-13.937 0-.095-.048-.191-.048-.287a1.79 1.79 0 0 0-.87-.048c-.241.048-.435.144-.676.287.048.144.096.336.096.527.87 4.358-1.256 11.447-2.077 14.129-.096.383-.241.766-.241.862-.049.526-.483.91-1.063.91s-1.063-.48-1.063-1.054c0-.24.048-.431.338-1.341.773-2.538 2.754-9.243 2.03-13.123-.097-.383-.146-.718-.242-1.005-.097-.336 0-.67.241-.958.58-.67 1.353-1.102 2.222-1.293.918-.144 1.836 0 2.657.43.29.144.484.384.532.72.048.239.096.478.193.765 1.256 5.269 3.865 9.148 6.667 13.219 1.932 2.825 4.686 7.327 6.232 10.776.241.526 0 1.15-.532 1.389-.145.047-.435-.719-.58-.719" fill="#231F20"/><path d="M42.71 39.368a1.07 1.07 0 0 1-1.014-.766c-.822-2.922-2.03-3.928-3.575-5.173-1.353-1.101-2.85-2.347-4.203-4.933-.145-.335-.145-.718.048-1.006.193-.287.532-.479.918-.479.097 0 2.416 0 6.135 1.054.967-1.245 2.995-3.4 5.7-3.88.436-.095.822.097 1.064.432a.928.928 0 0 1 0 1.101c-.097.192-2.078 4.023-.435 11.782a1.075 1.075 0 0 1-.821 1.245 1.084 1.084 0 0 1-1.256-.814c-1.112-5.172-.725-8.764-.194-10.92-1.16.719-2.174 1.82-2.85 2.826-.241.383-.725.527-1.16.383-1.738-.527-3.188-.814-4.25-.958.869 1.15 1.739 1.868 2.608 2.539 1.594 1.34 3.285 2.682 4.251 6.226.145.575-.193 1.101-.724 1.293-.049.048-.145.048-.242.048" fill="#231F20"/><path d="M42.71 39.368c-.241 0-.483-.096-.724-.288a1.051 1.051 0 0 1-.097-1.484c.628-.67 1.353-1.102 2.222-1.245.87-.192 1.788 0 2.657.43.532.288.725.91.435 1.39-.29.526-.918.718-1.401.43-.435-.239-.87-.287-1.304-.239-.387.096-.725.287-1.063.623-.145.24-.435.383-.725.383m43.478 8.764a.98.98 0 0 1-.531-.143c-.483-.288-.628-.958-.338-1.437l1.497-2.395c.677-1.101 1.836-1.82 3.044-1.868.338-.048.821-.24 1.063-.718.241-.479.096-1.102-.338-1.485a1.838 1.838 0 0 0-.628-.287c-.822-.096-1.595-.575-2.078-1.293a1.508 1.508 0 0 0-.531-.431c-.483-.192-1.111-.048-1.45.383-.29.383-.386.862-.193 1.293.483 1.101.338 2.442-.338 3.544l-2.319 3.688c-.29.479-.966.622-1.449.335-.483-.287-.628-.958-.338-1.437l2.319-3.688c.338-.526.386-1.149.193-1.628a3.333 3.333 0 0 1 .483-3.4 3.447 3.447 0 0 1 3.961-.958c.58.24 1.063.67 1.45 1.197.145.192.386.335.628.383a3.563 3.563 0 0 1 1.69.719 3.294 3.294 0 0 1 .918 3.927 3.454 3.454 0 0 1-2.85 1.964c-.531.047-1.063.383-1.4.91L87.154 47.7c-.242.24-.628.431-.967.431" fill="#231F20"/><path d="M83.193 46.408c0 .096 0 .192-.048.287 0-.095.048-.191.048-.287zm-18.02 17.768h-.144c-.58-.048-.966-.574-.918-1.15.242-2.106 1.208-4.022 1.98-5.076 1.16-1.58 3.479-3.113 6.184-4.933 3.092-2.06 6.57-4.406 8.986-7.232l.145-.143c.29-.288.724-.383 1.11-.24.387.144.629.527.677.91l.049 1.245 2.415-1.388c.386-.192.87-.192 1.16.095.29.288.483.719.338 1.15-1.063 3.113-1.884 7.95-2.61 11.781-.24 1.341-.482 2.587-.675 3.688-.097.575-.677.91-1.208.814-.58-.095-.918-.67-.821-1.197.193-1.054.434-2.347.676-3.64.58-3.16 1.208-6.657 1.932-9.578l-1.69.957c-.339.192-.725.192-1.015 0a1.008 1.008 0 0 1-.531-.862v-.479c-2.368 2.251-5.17 4.12-7.73 5.843-2.415 1.629-4.686 3.161-5.652 4.454-.628.815-1.401 2.347-1.594 4.071-.097.527-.532.91-1.063.91z" fill="#231F20"/><path d="M57.783 60.249c-.58 0-1.063-.479-1.063-1.054V42.29c0-3.831 2.898-6.657 4.686-7.615v-13.84c-.29-.432-.435-.959-.435-1.533 0-.575.145-1.102.435-1.533 0-.958.773-1.724 1.739-1.724h4.01c.966 0 1.739.766 1.739 1.724.29.431.435.958.435 1.533 0 .574-.145 1.101-.435 1.532v13.841c1.787.958 4.686 3.736 4.686 7.615v11.686c0 .575-.483 1.054-1.063 1.054s-1.063-.48-1.063-1.054V42.29c0-3.544-3.333-5.795-3.913-5.938-.435-.144-.773-.527-.773-1.006V20.402c0-.335.145-.622.387-.814 0 0 .048-.144.048-.335 0-.192-.048-.287-.048-.335a1.068 1.068 0 0 1-.484-.862h-3.14c0 .335-.193.67-.483.862 0 .048-.048.143-.048.335 0 .191.048.287.097.335.241.192.386.479.386.814v14.943c0 .479-.338.862-.773 1.006-.58.143-3.913 2.394-3.913 5.938v16.906c.048.623-.435 1.054-1.014 1.054" fill="#231F20"/><path d="M67.251 30.651h-4.203c-.58 0-1.062-.479-1.062-1.053 0-.575.483-1.054 1.062-1.054h4.203c.58 0 1.063.479 1.063 1.054 0 .574-.483 1.053-1.063 1.053" fill="#231F20"/><path d="M23.29 40.9a.534.534 0 0 1-.532.527.534.534 0 0 1-.53-.527c0-.287.24-.526.53-.526.29.047.532.239.532.526m-.821 3.257a.534.534 0 0 1-.532.527.534.534 0 0 1-.531-.527c0-.287.241-.527.531-.527.29 0 .532.24.532.527m6.521 4.454a.534.534 0 0 1-.531.527.534.534 0 0 1-.531-.527c0-.287.241-.527.53-.527.29.048.532.24.532.527m-1.014 4.549a.534.534 0 0 1-.532.528.534.534 0 0 1-.531-.527c0-.287.242-.527.531-.527.29.048.532.24.532.527m6.232 4.359a.534.534 0 0 1-.532.526.534.534 0 0 1-.531-.527c0-.287.241-.527.531-.527.29 0 .532.24.532.527" fill="#FEBC11"/><path d="M46.913 52.395a.534.534 0 0 1-.531.526.534.534 0 0 1-.532-.526c0-.288.242-.527.532-.527.29 0 .531.24.531.527" fill="#D7EAF9"/><path d="M26.961 26.245c0 .623-.483 1.102-1.11 1.102a1.089 1.089 0 0 1-1.112-1.102c0-.622.483-1.101 1.111-1.101s1.111.526 1.111 1.101" fill="#EE2635"/><path d="M13.097 25.144c0 .622-.483 1.101-1.111 1.101a1.089 1.089 0 0 1-1.112-1.101c0-.623.483-1.102 1.112-1.102.628 0 1.11.527 1.11 1.102" fill="#D7EAF9"/><path d="M77.59 27.49a1.09 1.09 0 0 1-1.112 1.102 1.089 1.089 0 0 1-1.11-1.102c0-.622.482-1.101 1.11-1.101.628 0 1.111.479 1.111 1.101" fill="#FEDA00"/><path d="M50.778 1.245c0 .623-.483 1.102-1.111 1.102a1.089 1.089 0 0 1-1.111-1.102c0-.622.483-1.101 1.11-1.101.629 0 1.112.479 1.112 1.101m45.99 48.803c0 .622-.483 1.101-1.111 1.101a1.089 1.089 0 0 1-1.111-1.101c0-.623.483-1.102 1.111-1.102s1.111.48 1.111 1.102m-51.256 5.46a.534.534 0 0 1-.531.526.534.534 0 0 1-.532-.526c0-.288.242-.527.532-.527.29 0 .531.24.531.527m3.382.239a.534.534 0 0 1-.532.527.534.534 0 0 1-.531-.527c0-.287.241-.527.531-.527.29 0 .532.24.532.527m-1.836 2.491a.534.534 0 0 1-.531.526.534.534 0 0 1-.532-.526c0-.288.242-.527.532-.527.29 0 .531.24.531.527m4.299.718a.534.534 0 0 1-.53.527.534.534 0 0 1-.532-.527c0-.287.241-.527.531-.527.29 0 .531.24.531.527" fill="#D7EAF9"/><path d="M89.522 25.67l-.387-.383.387-.383a.747.747 0 0 0 0-1.053.763.763 0 0 0-1.063 0l-.387.383-.386-.383a.763.763 0 0 0-1.063 0 .747.747 0 0 0 0 1.053l.387.383-.387.383a.747.747 0 0 0 0 1.054.763.763 0 0 0 1.063 0l.386-.383.387.383a.763.763 0 0 0 1.063 0 .747.747 0 0 0 0-1.054" fill="#5FBAE9"/><path d="M45.899 9.818l-.387-.383.387-.383a.747.747 0 0 0 0-1.054.763.763 0 0 0-1.063 0l-.387.383-.386-.383a.763.763 0 0 0-1.063 0 .747.747 0 0 0 0 1.054l.386.383-.386.383a.747.747 0 0 0 0 1.054.763.763 0 0 0 1.063 0l.386-.383.387.383a.763.763 0 0 0 1.063 0 .747.747 0 0 0 0-1.054" fill="#FEDA00"/><path d="M20.246 15.852l-.386-.383.386-.383a.747.747 0 0 0 0-1.053.763.763 0 0 0-1.062 0l-.387.383-.386-.383a.763.763 0 0 0-1.063 0 .747.747 0 0 0 0 1.053l.386.383-.386.383a.747.747 0 0 0 0 1.054.763.763 0 0 0 1.063 0l.386-.383.387.383a.763.763 0 0 0 1.062 0 .747.747 0 0 0 0-1.054m82.174 20.69l-.386-.383.386-.383a.747.747 0 0 0 0-1.054.763.763 0 0 0-1.063 0l-.386.383-.386-.383a.763.763 0 0 0-1.063 0 .747.747 0 0 0 0 1.054l.386.383-.386.383a.747.747 0 0 0 0 1.054.763.763 0 0 0 1.063 0l.386-.383.386.383a.763.763 0 0 0 1.063 0 .747.747 0 0 0 0-1.054" fill="#EE2635"/><path d="M6.478 33.716l-.386-.383.386-.383a.747.747 0 0 0 0-1.053.763.763 0 0 0-1.063 0l-.386.383-.386-.383a.763.763 0 0 0-1.063 0 .747.747 0 0 0 0 1.053l.386.383-.386.383a.747.747 0 0 0 0 1.054.763.763 0 0 0 1.063 0l.386-.383.386.383a.763.763 0 0 0 1.063 0 .747.747 0 0 0 0-1.054" fill="#5FBAE9"/><path d="M83.58 9.866a2.69 2.69 0 0 0-2.706 2.682 2.69 2.69 0 0 0 2.706 2.682 2.69 2.69 0 0 0 2.705-2.682c0-1.485-1.256-2.682-2.705-2.682zm0 6.274c-1.981 0-3.623-1.58-3.623-3.592a3.603 3.603 0 0 1 3.623-3.592c1.98 0 3.623 1.58 3.623 3.592-.048 2.011-1.643 3.592-3.623 3.592zM9.184 45.067c-.725 0-1.353.575-1.353 1.341 0 .718.58 1.341 1.353 1.341.724 0 1.352-.575 1.352-1.341-.048-.766-.628-1.341-1.352-1.341zm0 3.496c-1.208 0-2.223-1.006-2.223-2.203 0-1.197 1.015-2.203 2.223-2.203 1.207 0 2.222 1.006 2.222 2.203 0 1.245-1.015 2.203-2.222 2.203z" fill="#FEDA00"/><path d="M99.522 16.427c-.725 0-1.353.575-1.353 1.341s.58 1.341 1.353 1.341c.724 0 1.352-.575 1.352-1.34 0-.767-.58-1.342-1.352-1.342zm0 3.544c-1.208 0-2.222-1.005-2.222-2.203 0-1.197 1.014-2.203 2.222-2.203 1.207 0 2.222 1.006 2.222 2.203.048 1.198-.966 2.203-2.222 2.203z" fill="#D7EAF9"/><path d="M61.647 42.768h-.145c-.096-.048-.193-.096-.29-.191-.096-.096-.048-.24-.048-.336.483-1.58 1.401-2.777 2.126-3.496a.44.44 0 0 1 .338-.143c.097 0 .242.047.29.143.193.192.193.431 0 .623-.628.67-1.498 1.724-1.884 3.16 0 .097-.193.24-.387.24m3.189-4.358c-.145 0-.29-.048-.338-.192a.676.676 0 0 1-.097-.335c0-.096.097-.24.193-.287l.435-.288c.097-.047.145-.047.242-.047.144 0 .29.095.386.191.048.096.097.24.048.335-.048.096-.096.192-.193.288-.097.095-.241.143-.386.24-.145.095-.242.095-.29.095" fill="#FFF"/><path d="M91.696 125H20.44c-3.382 0-6.136-2.73-6.136-6.082V83.429c0-3.592 2.706-6.561 6.329-6.944l6.667-.67a1.154 1.154 0 0 0 1.062-1.15v-2.97a.664.664 0 0 0-.338-.574l-.724-.431a4.141 4.141 0 0 1-2.126-3.64v-3.017a1.93 1.93 0 0 1 1.932-1.916h58.02a1.93 1.93 0 0 1 1.932 1.916v3.065a4.122 4.122 0 0 1-2.126 3.592l-.724.43a.664.664 0 0 0-.338.575v2.97c0 .574.434 1.101 1.062 1.15l6.57.67a6.954 6.954 0 0 1 6.329 6.944v35.489c0 3.352-2.754 6.082-6.135 6.082zM27.25 64.224v2.874a2.05 2.05 0 0 0 1.063 1.82l.725.43a2.714 2.714 0 0 1 1.4 2.395v2.97a3.2 3.2 0 0 1-2.946 3.208l-6.667.671a4.908 4.908 0 0 0-4.444 4.885v35.489c0 2.203 1.787 4.023 4.058 4.023h71.256c2.222 0 4.058-1.773 4.058-4.023V83.477c0-2.538-1.933-4.598-4.445-4.885l-6.57-.67a3.2 3.2 0 0 1-2.947-3.21v-2.969c0-.958.532-1.915 1.401-2.394l.725-.431a2.05 2.05 0 0 0 1.063-1.82v-2.922H27.25v.048z" fill="#231F20"/></g></svg>