<svg xmlns="http://www.w3.org/2000/svg" width="80" height="106"><g fill="#FFF"><path d="M0 87.6c0-.3.2-.6.5-.6s.5.3.5.6v6.8c0 .3-.2.6-.5.6s-.5-.3-.5-.6v-6.8zm12 0c0-.3.4-.6.8-.6s.7.3.7.6v6.2h3.9c.3 0 .6.3.6.6 0 .4-.3.6-.6.6h-4.7c-.4 0-.7-.3-.7-.6v-6.8zm10 0c0-.3.2-.6.5-.6s.5.3.5.6v6.8c0 .3-.2.6-.5.6s-.5-.3-.5-.6v-6.8zm5 0c0-.3.4-.6.8-.6s.7.3.7.6v2.9l3.9-3.3c.1-.1.3-.2.5-.2.4 0 .8.3.8.6 0 .2-.1.3-.2.4l-3 2.5 3.4 3.5c.1.1.1.2.1.3 0 .4-.4.7-.8.7-.2 0-.4-.1-.6-.3l-3.1-3.3-1 .8v2.2c0 .3-.3.6-.7.6-.5 0-.8-.3-.8-.6v-6.8zm11 0c0-.3.4-.6.8-.6h5.6c.3 0 .6.3.6.6s-.3.6-.6.6h-4.9v2.2h4.1c.4 0 .7.2.7.6 0 .3-.3.6-.7.6h-4.1v2.2h4.9c.3 0 .6.3.6.6 0 .4-.3.6-.6.6h-5.6c-.5 0-.8-.3-.8-.6v-6.8zm16 0c0-.3.4-.6.8-.6h5.6c.3 0 .6.3.6.6s-.3.6-.6.6h-4.9v2.2h4.2c.3 0 .6.2.6.6 0 .3-.3.6-.6.6h-4.2v2.2h4.9c.3 0 .6.3.6.6 0 .4-.3.6-.6.6h-5.6c-.5 0-.8-.3-.8-.6v-6.8zm10 6.5l3-6.4c.1-.5.5-.7 1-.7s.8.2 1.1.7l2.8 6.4c.1.1.1.2.1.3 0 .4-.3.6-.7.6-.4 0-.7-.1-.8-.4l-.6-1.5h-3.8l-.6 1.5c-.2.3-.4.4-.8.4s-.7-.3-.7-.6v-.3zm2.4-2h3.1L68 88.6l-1.6 3.5zM79.3 87c.4 0 .7.3.7.6s-.3.6-.7.6h-2.6v6.2c0 .3-.3.6-.7.6-.5 0-.8-.3-.8-.6v-6.2h-2.5c-.4 0-.7-.3-.7-.6 0-.4.3-.6.7-.6h6.6zM17 100.1l.1-.1h2.5c.2 0 .2.3 0 .3h-2.3v1.6h1.3c.7 0 1.4.2 1.4 1s-.6 1.1-1.4 1.1h-1.5l-.1-.1v-3.8zm.3 3.7h1.3c.7 0 1.1-.3 1.1-.9 0-.5-.4-.8-1.1-.8h-1.3v1.7zm4.2-.4c.1 0 .3-.1.4-.1.1-.1.3-.1.4-.1h.4v-.1c0-.2 0-.5-.1-.6-.2-.1-.3-.2-.6-.2-.2 0-.3 0-.5.1s-.3.1-.3.1-.1 0-.1-.1.1-.2.2-.2c.3-.2.5-.2.8-.2.3 0 .5.1.7.3.1.2.2.5.2.8v1.7c0 .2-.2.2-.2 0-.3.1-.6.2-.9.2-.4 0-.9-.2-.9-.8 0-.4.1-.6.5-.8zm.5 1.4c.3 0 .5-.1.8-.3v-1.1h-.5c-.2 0-.4 0-.5.1-.3.1-.6.3-.6.6 0 .5.4.7.8.7zm1-2.7c0-.1.2-.1.2 0v1.3h1.6v-1.3c0-.1.2-.1.2 0v2.8c0 .1-.2.1-.2 0v-1.3h-1.6v1.3c0 .1-.2.1-.2 0v-2.8zm3.4.4c.3-.3.7-.5 1.1-.5.5 0 .8.2 1.1.5.2.2.4.6.4 1s-.1.8-.4 1c-.3.3-.7.5-1.1.5-.4 0-.8-.2-1.1-.5-.2-.2-.4-.6-.4-1s.2-.8.4-1zm.2 1.8c.2.3.6.4.9.4.4 0 .7-.1.9-.4.2-.2.3-.5.3-.8 0-.4-.1-.7-.3-.9-.2-.3-.5-.4-.9-.4-.3 0-.7.1-.9.4-.2.2-.3.6-.3.9 0 .3.1.6.3.8zm3.4-2.2c0-.1.3-.1.3 0v.9c0 .5.2.7.6.7.3 0 .6 0 .9-.2v-1.4c0-.1.2-.1.2 0v2.8c0 .1-.2.1-.2 0v-1.1c-.3.1-.6.2-.9.2-.6 0-.9-.3-.9-1v-.9zm2 0c0-.1.3-.1.3 0v1.3h.4l1.1-1.3c0-.1 0-.1.1-.1 0 0 .1 0 .1.1s0 .1-.1.1l-1 1.3 1.1 1.3v.1c0 .1 0 .1-.1.1 0 0-.1 0-.1-.1l-1.1-1.3h-.5v1.3c0 .1-.2.1-.2 0v-2.8zm3 0c0-.1.2-.1.2 0v2.3l1.6-2.1v-.1c0-.2.2-.2.2 0v2.7c0 .1-.2.1-.2 0v-2.3l-1.6 2v.2c0 .2-.2.2-.2 0v-2.7zm4.3.4c.2-.3.6-.5 1-.5.2 0 .4 0 .6.2.1 0 .1 0 .1.1s0 .1-.1.1h-.2c-.1-.1-.3-.2-.4-.2-.3 0-.6.2-.8.5-.2.2-.3.5-.3.8 0 .4.1.7.3.9.2.2.5.4.8.4.2 0 .3-.1.4-.2h.2s.1 0 .1.1 0 .1-.2.1c-.1.1-.3.2-.5.2-.4 0-.8-.2-1-.4-.2-.3-.3-.7-.3-1.1 0-.4.1-.8.3-1zm3.1 0c.3-.3.7-.5 1.1-.5.5 0 .8.2 1.1.5.2.2.4.6.4 1s-.1.8-.4 1c-.3.3-.7.5-1.1.5-.4 0-.8-.2-1.1-.5-.2-.2-.4-.6-.4-1s.2-.8.4-1zm.2 1.8c.2.3.6.4.9.4.4 0 .7-.1.9-.4.2-.2.3-.5.3-.8 0-.4-.1-.7-.3-.9-.2-.3-.5-.4-.9-.4-.3 0-.7.1-.9.4-.2.2-.3.6-.3.9 0 .3.1.6.3.8zm4.4-2.2c0-.1 0-.1.1-.1h.9c.4 0 .8.2.8.8 0 .3-.2.5-.3.6.3.1.5.4.5.8 0 .6-.4.8-.8.8h-1c-.1 0-.2 0-.2-.1v-2.8zm.2 1.2h.8c.3 0 .5-.2.5-.5 0-.4-.2-.6-.6-.6h-.7v1.1zm0 1.5h.9c.4 0 .6-.2.6-.7 0-.3-.2-.5-.5-.5h-1v1.2z"/><path d="M49 102.1c0-.1.3-.1.3 0v1.3h.4l1.1-1.3c0-.1 0-.1.1-.1 0 0 .1 0 .1.1s0 .1-.1.1l-1 1.3 1.1 1.3v.1c0 .1 0 .1-.1.1 0 0-.1 0-.1-.1l-1.1-1.3h-.5v1.3c0 .1-.2.1-.2 0v-2.8zm3.1-.1c.1 0 .1 0 .1.1l.8 2.4.8-2.4c0-.1 0-.1.1-.1 0 0 .1 0 .1.1v.2l-.8 2.5c-.3.8-.6 1.2-1 1.2-.2 0-.2-.2 0-.2.3 0 .5-.4.7-1l-.9-2.5v-.1c0-.1.1-.2.1-.2zm2.2.5c.2-.3.6-.5 1-.5.2 0 .4 0 .6.2.1 0 .1 0 .1.1s0 .1-.1.1h-.2c-.1-.1-.3-.2-.4-.2-.3 0-.6.2-.8.5-.2.2-.3.5-.3.8 0 .4.1.7.3.9.2.2.5.4.8.4.2 0 .3-.1.4-.2h.2s.1 0 .1.1 0 .1-.2.1c-.1.1-.3.2-.5.2-.4 0-.8-.2-1-.4-.2-.3-.3-.7-.3-1.1 0-.4.1-.8.3-1zm3.1 0c.3-.3.7-.5 1.1-.5.5 0 .8.2 1.1.5.2.2.4.6.4 1s-.1.8-.4 1c-.3.3-.7.5-1.1.5-.4 0-.8-.2-1.1-.5-.2-.2-.4-.6-.4-1s.2-.8.4-1zm.2 1.8c.2.3.6.4.9.4.4 0 .7-.1.9-.4.2-.2.3-.5.3-.8 0-.4-.1-.7-.3-.9-.2-.3-.5-.4-.9-.4-.3 0-.7.1-.9.4-.2.2-.3.6-.3.9 0 .3.1.6.3.8zm2.4-2.1c0-.1.1-.2.2-.2 0 0 .1 0 .1.1l1.2 2 1.2-2c0-.1.1-.1.1-.1.1 0 .2 0 .2.2v2.7c0 .1 0 .1-.2.1 0 0-.1 0-.1-.1v-2.4s-.2.3-.5.9c-.4.6-.5.9-.5.9-.1.1-.2.1-.3 0l-1.1-1.8v2.4c0 .1 0 .1-.1.1s-.2 0-.2-.1v-2.7zM40 66l-.4-.3c-4.3-3.5-6.3-5.3-7.6-7.8-1.2-2.4-1.1-4.2-.7-5.3.4-1.4 1.3-2.5 2.6-3.1 2.2-1.1 4.7-.4 6.1 1.5 1.4-1.9 3.9-2.6 6.1-1.5 1.3.6 2.2 1.7 2.6 3.1.4 1.1.5 3-.7 5.3-1.3 2.5-3.3 4.3-7.6 7.8l-.4.3zm-4-15.6c-.5 0-1.1.1-1.5.3-1 .5-1.7 1.3-2 2.3-.4 1.2-.2 2.7.6 4.2 1.2 2.2 3 3.9 6.9 7.1 3.8-3.2 5.6-4.9 6.8-7.1.8-1.5 1.1-3 .7-4.2-.3-1-1.1-1.8-2-2.3-1.9-.9-4.1-.1-5 1.9l-.6 1.3-.6-1.3c-.6-1.4-1.9-2.2-3.3-2.2zm-2.2-16.8c-.3 0-.5-.2-.7-.4l-10-15.5c-.6-1.1-1.7-1.8-2.9-2.1-1.2-.3-2.5-.1-3.5.6-2.2 1.3-2.9 4.2-1.5 6.4l6.7 10.6c.2.4-.1.5-.4.7-.4.2-.8.1-1.1-.2l-6.5-10.4c-1.8-2.8-.9-6.6 2-8.4 1.4-.8 3.1-1.1 4.7-.7 1.6.3 2.9 1.3 3.8 2.7L35 33.1c.2.4-.4.1-.8.3-.1.1-.3.2-.4.2"/><path d="M16.8 28c-.1 0-.3 0-.4-.1-.4-.1-.5-.6-.3-1l3.5-6.5c.1-.4.6-.5 1-.3s.5.6.3 1l-3.5 6.5c-.1.3-.4.4-.6.4m3 5c-.1 0-.3 0-.4-.1-.4-.1-.5-.6-.3-1l3.5-6.5c.1-.4.6-.5 1-.3s.5.6.3 1l-3.5 6.5c-.1.3-.4.4-.6.4m23.4 2c-.3 0-.5-.2-.7-.5-1.1-2.3-3-5.6-4.3-7.6-2-2.9-4-6-5-10.1v-.2c-.2-.1-.4-.1-.6-.1-.2.1-.4.1-.5.3v.3c.7 3.2-.9 8.4-1.4 10.3l-.2.6c0 .4-.4.7-.7.7-.5 0-.8-.3-.8-.8 0-.1 0-.3.2-.9.6-1.9 2-6.8 1.5-9.6-.1-.3-.1-.5-.2-.8 0-.2 0-.4.2-.7.4-.4 1-.8 1.6-.9.6-.1 1.3 0 1.9.4.2.1.3.2.4.5 0 .2 0 .3.1.5.9 3.9 2.8 6.7 4.8 9.7 1.4 2 3.3 5.3 4.4 7.9.2.3 0 .8-.3 1-.2 0-.4-.5-.5-.5"/><path d="M31.3 17c-.3 0-.6-.2-.7-.6-.6-2.1-1.4-2.8-2.5-3.7-1-.8-2.1-1.7-3-3.6-.1-.2-.1-.5 0-.7.1-.2.4-.3.6-.3.1 0 1.7 0 4.4.7.7-.9 2.1-2.4 4-2.8.3-.1.6.1.8.3.1.3.1.6 0 .8-.1.2-1.5 2.9-.3 8.5 0 .4-.2.8-.6.9-.4.1-.8-.2-.9-.6-.8-3.7-.5-6.3-.1-7.8-.9.5-1.6 1.3-2.1 2-.1.3-.5.4-.8.3-1.2-.4-2.3-.6-3-.7.6.8 1.2 1.3 1.8 1.8 1.2 1 2.4 2 3.1 4.5.1.4-.2.8-.6 1h-.1"/><path d="M30.7 17c-.1 0-.3-.1-.4-.2-.4-.2-.4-.7-.1-.9.4-.5.9-.8 1.5-.9.6-.1 1.3 0 1.9.3.4.2.5.6.3.9-.2.4-.6.5-1 .3-.3-.2-.6-.2-.9-.2-.3.1-.5.2-.7.5-.2.1-.4.2-.6.2m30.7 6c-.1 0-.3 0-.4-.1-.3-.2-.4-.7-.2-1.1l1-1.7c.5-.9 1.2-1.4 2-1.4.3-.1.6-.2.7-.6.2-.3.1-.8-.2-1-.1-.1-.3-.2-.4-.2-.5-.1-1.1-.5-1.4-1l-.3-.3c-.4-.2-.8-.1-1 .3-.2.2-.3.6-.1.9.3.8.2 1.8-.3 2.6l-1.5 2.8c-.2.3-.7.4-1 .2-.3-.2-.4-.7-.2-1l1.5-2.8c.3-.4.3-.8.2-1.2-.3-.8-.2-1.8.3-2.5.6-.8 1.7-1.1 2.6-.7.4.2.7.5.9.8.1.2.3.3.5.3.4.1.8.3 1.1.6.8.7 1 1.8.6 2.9-.4.8-1.1 1.4-1.9 1.4-.4.1-.7.3-.9.7l-1 1.8c-.2.2-.4.3-.6.3"/><path d="M59.2 21.8s0 .1-.1.2c.1-.1.1-.2.1-.2zM46.7 34h-.1c-.4 0-.6-.4-.6-.8.2-1.4.8-2.8 1.4-3.5.8-1.1 2.4-2.1 4.3-3.4 2.1-1.4 4.5-3 6.2-5 0 0 0-.1.1-.1.2-.2.5-.3.7-.2.3.1.5.4.5.7v.8l1.7-.9c.3-.2.6-.2.8 0 .3.2.4.5.3.8-.7 2.2-1.3 5.5-1.8 8.2-.2.9-.4 1.7-.5 2.5-.1.4-.5.6-.9.6-.4-.1-.6-.5-.5-.9.1-.7.3-1.5.4-2.5.4-2.1.9-4.5 1.4-6.5l-1.2.6c-.2.1-.5.1-.7 0-.2-.1-.4-.3-.4-.6v-.3c-1.6 1.5-3.5 2.8-5.3 4-1.7 1.1-3.2 2.2-3.9 3.1-.5.6-1 1.6-1.1 2.8-.1.3-.4.6-.8.6z"/><path d="M41.8 32c-.5 0-.8-.3-.8-.8V19c0-2.8 2.1-4.8 3.3-5.5v-10c-.2-.3-.3-.7-.3-1.1 0-.5.1-.8.3-1.1 0-.7.6-1.3 1.3-1.3h2.8c.7 0 1.3.6 1.3 1.3.2.3.3.6.3 1.1 0 .4-.1.8-.3 1.1v10c1.2.7 3.3 2.7 3.3 5.5v8.5c0 .4-.3.7-.8.7-.4 0-.7-.3-.7-.7V19c0-2.6-2.4-4.2-2.8-4.3-.3-.1-.5-.4-.5-.7V3.2c0-.3.1-.5.2-.6 0 0 .1-.1.1-.3 0-.1-.1-.2-.1-.2-.2-.2-.3-.4-.3-.6h-2.3c0 .2-.1.4-.3.6v.5c.2.1.3.3.3.6V14c0 .3-.2.6-.5.7-.4.1-2.8 1.8-2.8 4.3v12.3c0 .4-.3.7-.7.7"/><path d="M48.3 11h-2.6c-.4 0-.7-.5-.7-1s.3-1 .7-1h2.6c.4 0 .7.5.7 1s-.3 1-.7 1m16.4 67H14.3c-2.4 0-4.3-2-4.3-4.5V47.6c0-2.7 1.9-4.8 4.5-5.1l4.7-.5c.4 0 .7-.4.7-.8V39c0-.2-.1-.4-.2-.4l-.5-.3c-1-.6-1.5-1.6-1.5-2.7v-2.2c0-.8.6-1.4 1.3-1.4h41c.8 0 1.4.6 1.4 1.4v2.2c0 1.1-.6 2.1-1.5 2.7l-.5.3c-.1 0-.3.2-.3.4v2.2c0 .4.4.8.8.8l4.6.5c2.6.3 4.5 2.5 4.5 5.1v25.9c0 2.5-1.9 4.5-4.3 4.5zM19.2 33.5v2.1c0 .6.2 1.1.7 1.4l.5.3c.6.3 1 1 1 1.7v2.2c0 1.2-.9 2.2-2.1 2.4l-4.6.5c-1.8.1-3.2 1.7-3.2 3.5v25.9c0 1.7 1.3 3 2.8 3h50.4c1.6 0 2.8-1.3 2.8-3V47.6c0-1.9-1.3-3.4-3.1-3.6l-4.6-.5c-1.2-.1-2.1-1.1-2.1-2.3V39c0-.7.4-1.4 1-1.8l.5-.3c.4-.3.7-.8.7-1.3v-2.1H19.2z"/></g></svg>