<svg width="139" height="213" xmlns="http://www.w3.org/2000/svg"><g fill="none"><path d="M.177 171.304a1.25 1.25 0 0 1 1.243-1.245c.71 0 1.242.534 1.242 1.245v13.333c0 .652-.592 1.244-1.242 1.244-.71 0-1.243-.533-1.243-1.244v-13.333zm20.525 0a1.25 1.25 0 0 1 1.242-1.245c.71 0 1.242.534 1.242 1.245v12.148h6.507c.591 0 1.064.533 1.064 1.126 0 .652-.473 1.126-1.064 1.126h-7.808a1.25 1.25 0 0 1-1.242-1.245v-13.155h.06zm16.621 0a1.25 1.25 0 0 1 1.242-1.245c.71 0 1.242.534 1.242 1.245v13.333c0 .652-.591 1.244-1.242 1.244-.71 0-1.242-.533-1.242-1.244v-13.333zm10.292 0a1.25 1.25 0 0 1 1.242-1.245c.71 0 1.242.534 1.242 1.245v5.748l6.33-6.578c.236-.296.531-.415.886-.415.651 0 1.242.593 1.242 1.245 0 .296-.118.592-.295.83l-4.91 4.859 5.501 6.933c.178.178.237.415.237.711 0 .652-.592 1.244-1.242 1.244-.414 0-.77-.177-1.124-.592l-5.087-6.519-1.538 1.541v4.385c0 .652-.591 1.245-1.242 1.245-.71 0-1.242-.534-1.242-1.245v-13.392zm18.099.177c0-.651.592-1.244 1.243-1.244h9.227c.591 0 1.065.533 1.065 1.126 0 .593-.474 1.126-1.065 1.126h-7.926v4.326h6.802c.591 0 1.065.474 1.065 1.126 0 .652-.474 1.126-1.065 1.126h-6.802v4.385h7.926c.591 0 1.065.533 1.065 1.126 0 .652-.474 1.126-1.065 1.126h-9.227a1.25 1.25 0 0 1-1.243-1.245v-12.978zm28.629 0c0-.651.591-1.244 1.242-1.244h9.227c.591 0 1.065.533 1.065 1.126 0 .593-.474 1.126-1.065 1.126h-7.926v4.326h6.802c.592 0 1.065.474 1.065 1.126 0 .652-.473 1.126-1.065 1.126h-6.802v4.385h7.926c.591 0 1.065.533 1.065 1.126 0 .652-.474 1.126-1.065 1.126h-9.227a1.25 1.25 0 0 1-1.242-1.245v-12.978zm17.094 12.623l4.909-12.741c.296-.889.887-1.304 1.774-1.304.829 0 1.42.415 1.775 1.304l4.85 12.74c.06.238.118.475.118.593 0 .711-.532 1.185-1.242 1.185-.65 0-1.064-.296-1.242-.888l-1.065-2.786h-6.447l-1.064 2.786c-.178.592-.592.888-1.243.888-.71 0-1.183-.533-1.183-1.125-.118-.237-.059-.415.06-.652zm4.022-3.97h5.146l-2.544-6.875-2.602 6.874zm22.062-9.897c.592 0 1.124.533 1.124 1.126 0 .593-.473 1.126-1.124 1.126h-4.2v12.148c0 .652-.59 1.244-1.241 1.244-.71 0-1.243-.533-1.243-1.244v-12.148h-4.258c-.592 0-1.065-.474-1.065-1.126 0-.652.473-1.126 1.065-1.126h10.942zM9 198.393c0-.197.167-.393.333-.393h5.834c.333 0 .333.688 0 .688h-5.5v4.42h3.166c1.584 0 3.167.687 3.167 2.946 0 2.16-1.5 2.946-3.167 2.946h-3.5c-.166 0-.333-.196-.333-.393v-10.214zm.667 10.018h3.166c1.5 0 2.5-.786 2.5-2.357 0-1.474-1-2.26-2.583-2.26H9.583v4.617h.084zm8.626-2.671c.259-.104.604-.208.948-.311.345-.104.69-.104.949-.104.258 0 .603-.104 1.12-.104v-.208c0-.727-.086-1.35-.43-1.662-.26-.416-.69-.624-1.294-.624-.517 0-.948.104-1.38.312-.344.208-.603.312-.689.312-.086 0-.258-.104-.258-.312 0-.208.172-.416.603-.623.517-.312 1.12-.416 1.81-.416.776 0 1.38.312 1.81.831.346.52.518 1.247.518 2.078v4.675c0 .416-.603.416-.603 0v-.207c-.604.415-1.294.623-2.07.623-1.12 0-2.327-.623-2.327-2.182 0-1.039.431-1.662 1.293-2.078zm1.207 3.637c.69 0 1.293-.208 1.897-.624v-3.013H20.19c-.518.104-.862.104-1.293.312-.776.312-1.294.727-1.294 1.558-.086 1.247.776 1.767 1.897 1.767zm5.5-7.061c0-.421.656-.421.656 0v3.368h4.688v-3.368c0-.421.656-.421.656 0v7.368c0 .421-.656.421-.656 0v-3.368h-4.688v3.368c0 .421-.656.421-.656 0v-7.368zm7.987.914c.628-.82 1.526-1.23 2.513-1.23 1.077 0 1.885.41 2.513 1.23.628.719.987 1.642.987 2.77 0 1.128-.27 2.051-.987 2.77-.628.82-1.526 1.23-2.513 1.23-.987 0-1.885-.41-2.513-1.23-.628-.719-.987-1.642-.987-2.77 0-1.026.359-2.051.987-2.77zm.36 5.129c.538.718 1.256 1.026 2.063 1.026.898 0 1.526-.308 2.154-1.026.449-.615.718-1.436.718-2.359s-.27-1.641-.718-2.256c-.538-.718-1.256-1.026-2.154-1.026-.807 0-1.525.308-2.064 1.026a3.906 3.906 0 0 0-.718 2.256c0 .923.27 1.744.718 2.359zm7.741-6.043c0-.421.614-.421.614 0v2.316c0 1.368.526 2 1.666 2 .702 0 1.316-.21 2.018-.527v-3.79c0-.42.614-.42.614 0v7.37c0 .42-.614.42-.614 0v-2.948a4.56 4.56 0 0 1-2.105.526c-1.492 0-2.281-.842-2.281-2.631v-2.316h.088zm6.998-.004c0-.416.604-.416.604 0v3.324h1.034l2.673-3.428c.086-.104.172-.208.258-.208.173 0 .259.104.259.312 0 .104-.086.207-.086.311l-2.587 3.325 2.673 3.429c.086.104.086.207.086.311 0 .208-.086.312-.259.312-.086 0-.172-.104-.344-.208l-2.673-3.428h-1.12v3.324c0 .416-.604.416-.604 0v-7.376h.086zm5.914.004c0-.421.618-.421.618 0v6.105l4.764-5.579v-.526c0-.421.618-.421.618 0v7.368c0 .421-.618.421-.618 0v-6.105l-4.764 5.579v.42c0 .422-.618.422-.618 0v-7.262zm12.726 1.034c.564-.934 1.451-1.35 2.42-1.35.564 0 1.048.104 1.531.416.242.103.323.207.323.415 0 .104-.08.312-.242.312-.08 0-.161-.104-.403-.208a2.62 2.62 0 0 0-1.21-.312c-.726 0-1.451.416-2.016 1.143-.403.624-.564 1.35-.564 2.182 0 1.039.241 1.87.725 2.494.484.623 1.13.935 1.855.935.484 0 .887-.104 1.21-.312.242-.104.322-.208.403-.208.08 0 .242.104.242.312 0 .208-.08.208-.403.415-.403.208-.887.416-1.452.416a2.875 2.875 0 0 1-2.339-1.143c-.564-.727-.806-1.662-.806-2.909 0-1.039.242-1.974.726-2.597zm7.261-.12c.628-.82 1.526-1.23 2.513-1.23 1.077 0 1.885.41 2.513 1.23.628.719.987 1.642.987 2.77 0 1.128-.27 2.051-.987 2.77-.628.82-1.526 1.23-2.513 1.23-.987 0-1.885-.41-2.513-1.23-.628-.719-.987-1.642-.987-2.77.09-1.026.449-2.051.987-2.77zm.449 5.129c.538.718 1.256 1.026 2.064 1.026.897 0 1.526-.308 2.154-1.026.449-.615.718-1.436.718-2.359s-.27-1.641-.718-2.256c-.539-.718-1.257-1.026-2.154-1.026-.808 0-1.526.308-2.064 1.026a3.906 3.906 0 0 0-.718 2.256c0 .923.27 1.744.718 2.359zM85 202.284c0-.19.08-.284.323-.284h2.096c1.049 0 2.016.568 2.016 1.797 0 .662-.322 1.23-.806 1.514.887.189 1.371.851 1.371 1.797 0 1.324-.887 1.892-2.097 1.892h-2.5c-.161 0-.322-.095-.322-.284v-6.432H85zm.565 2.838H87.5c.726 0 1.29-.473 1.29-1.325 0-.851-.645-1.324-1.451-1.324h-1.774v2.649zm0 3.31h2.096c.968 0 1.694-.473 1.694-1.418 0-.757-.565-1.325-1.452-1.325h-2.338v2.743zm6.521-6.12c0-.416.604-.416.604 0v3.324h1.034l2.673-3.428c.086-.104.172-.208.258-.208.173 0 .259.104.259.312 0 .104 0 .207-.086.311l-2.587 3.325 2.673 3.429c.086.104.086.207.086.311 0 .208-.086.312-.259.312-.086 0-.172-.104-.344-.208l-2.673-3.428h-1.12v3.324c0 .416-.604.416-.604 0v-7.376h.086zm6.252-.312c.169 0 .254.096.338.193l2.45 6.561 2.198-6.465c.084-.193.169-.289.338-.289s.338.096.338.386c0 .096 0 .193-.085.386l-2.45 6.947c-.76 2.123-1.606 3.281-2.958 3.281-.422 0-.422-.675 0-.675 1.099 0 1.69-.965 2.282-2.606l-2.704-6.947c-.085-.193-.085-.29-.085-.29 0-.289.169-.482.338-.482zm7.388 1.35c.564-.934 1.451-1.35 2.42-1.35.564 0 1.048.104 1.531.416.242.103.323.207.323.415 0 .104-.08.312-.242.312-.08 0-.161-.104-.403-.208a2.62 2.62 0 0 0-1.21-.312c-.726 0-1.451.416-2.016 1.143-.403.624-.564 1.35-.564 2.182 0 1.039.241 1.87.725 2.494.484.623 1.13.935 1.855.935.484 0 .887-.104 1.21-.312.242-.104.322-.208.403-.208.08 0 .242.104.242.312 0 .208-.08.208-.403.415-.403.208-.887.416-1.452.416a2.875 2.875 0 0 1-2.339-1.143c-.564-.727-.806-1.662-.806-2.909 0-1.039.242-1.974.726-2.597zm6.261-.12c.628-.82 1.526-1.23 2.513-1.23 1.077 0 1.885.41 2.513 1.23.628.719.987 1.642.987 2.77 0 1.128-.27 2.051-.987 2.77-.628.82-1.526 1.23-2.513 1.23-.987 0-1.885-.41-2.513-1.23-.628-.719-.987-1.642-.987-2.77.09-1.026.449-2.051.987-2.77zm.449 5.129c.538.718 1.256 1.026 2.064 1.026.897 0 1.526-.308 2.154-1.026.449-.615.718-1.436.718-2.359s-.27-1.641-.718-2.256c-.539-.718-1.257-1.026-2.154-1.026-.808 0-1.526.308-2.064 1.026a3.906 3.906 0 0 0-.718 2.256c0 .923.27 1.744.718 2.359zm7.564-5.938c0-.21.18-.421.359-.421.09 0 .27.105.359.21l2.782 5.369 2.782-5.368c.09-.106.18-.211.359-.211.18 0 .359.105.359.421v7.263c0 .21-.09.316-.359.316-.18 0-.27-.105-.27-.316v-6.316s-.448.843-1.256 2.421c-.807 1.58-1.256 2.316-1.256 2.422-.18.315-.449.315-.628 0l-2.513-4.843v6.316c0 .21-.09.316-.27.316-.179 0-.358-.105-.358-.316v-7.263H120z" fill="#FFF"/><path d="M74.64 76.852C70.66 66.71 61.272 58.914 58.955 47.717c-.06-.351-.12-.645-.179-.938-.653-.41.238-1.113-.475-.996-.713.176-1.486.41-1.96.996.118.41.177.88.296 1.349.594 3.458.416 7.738-.832 12.779-1.01 3.986-1.782 5.041-2.317 10.317l3.209 4.866 2.911.879 8.913.703 5.645-.175.476-.645z" fill="#EBF4FB"/><path d="M56.696 56.041c3.624 7.093 9.21 13.776 12.418 22.159l4.041-3.459C69.293 64.6 61.212 58.914 58.954 47.717c-.06-.351-.12-.645-.179-.938-.653-.41.238-1.113-.475-.996-.654.176-1.486.469-1.96 1.055.118.41.177.88.237 1.348.416 2.286.535 4.866.119 7.855" fill="#D7EAF9"/><path d="M58.3 46.134c-1.901-10.14-.119-15.006 0-15.182-2.317.527-4.694 2.638-6.06 4.807-4.339-1.466-4.041-1.466-4.041-1.466 2.97 6.507 6.655 5.393 8.437 12.604l1.664-.763" fill="#5FBAE9"/><path d="M103.162 75.62l-4.932 2.17-1.782-.997-5.05.352-6.834.88c0-1.642 1.01-3.518 1.485-4.28 2.555-4.104 12.716-8.559 18.302-15.124l.119 2.051.059 1.525 1.485-.88c-1.247 4.807-1.901 9.673-2.852 14.304z" fill="#F6871F"/><path d="M106.43 60.38c-.118.351-.237.703-.297 1.054-1.366 4.69-2.02 9.556-2.911 14.187l-3.268 3.224-1.07-1.29c.891-4.338 2.496-12.017 3.684-16.472l2.02-.352 1.367-.762c.238-.117.535.117.475.41" fill="#F26722"/><path d="M87.891 44.669c-.832-.82-1.604-1.231-1.96-1.348V25.03c.356-.293.534-.762.534-1.348 0-.352-.06-1.114-.237-1.349h-4.16a.807.807 0 0 0-.832.821c0 .117.06.293.12.41-.357.235-.655.763-.655 1.466 0 .586.238 1.114.535 1.348v17.645a.933.933 0 0 1-.475.82c-2.912 1.642-5.23 3.87-5.23 8.266v23.624h6.121c.773-3.282 3.15-6.096 5.526-8.206 1.605-1.466 3.268-2.58 4.516-3.4V51.82c0-3.166-1.842-5.628-3.506-7.035-.118-.058-.237-.117-.297-.117z" fill="#EE2635"/><path d="M91.694 51.82v13.835s-2.08 1.055-4.516 2.931V51.821c0-3.518-2.317-6.155-4.1-7.504-.297-.176-.416-.527-.416-.88V22.335h3.566c.118.235.237.997.237 1.349 0 .586-.237 1.114-.535 1.348v18.29c.416.117 1.13.527 1.961 1.172.12.059.179.176.297.235 1.664 1.465 3.506 3.927 3.506 7.093" fill="#C3203A"/><path d="M52.952 77.79l-.832.41-7.962-.88-5.645-.586-7.427-11.724-4.041-6.39a9.01 9.01 0 0 1 2.97-12.603c.239-.117.476-.293.714-.41a8.462 8.462 0 0 1 2.852-.88 9.294 9.294 0 0 1 6.655 4.221l15.865 24.68 1.13 2.11-4.279 2.052z" fill="#FEDA00"/><path d="M57.468 76.266l-4.516 1.582v-.058l-18.539-28.9a9.53 9.53 0 0 0-3.684-3.342l-1.248-.527c1.367-.41 2.733-.587 4.1-.352a9.294 9.294 0 0 1 6.655 4.22l15.865 24.68 1.13 2.11.237.587" fill="#FEBC11"/><path d="M107.857 56.745l2.376-3.224c.595-.938 1.189-.293 2.318-.352 1.01-.059 1.96-.645 2.377-1.641.534-1.114.178-2.521-.773-3.283-.416-.352-.95-.528-1.426-.645-.654-.059-1.604-1.114-2.14-1.348-1.128-.528-1.425-.762-2.198.234-.713.88-.832 1.935-.416 2.873.476 1.055.297 2.227-.297 3.165l-3.624 5.98 1.723.293 2.08-2.052" fill="#F2F2F2"/><path d="M36.909 86.348c-1.961-1.114-3.268-3.986-3.863-8.793h12.359l8.141.938h45.159c.18.117 1.07-1.876 0-.938 4.457-.586 7.25-.586 8.26 0 .773.47.773 2.052 0 4.69.357-.235-4.1 5.158-4.1 5.51l5.705 45.842c.178 10.258-8.2 18.64-18.54 18.64h-38.8c-10.399 0-26.74 2.522-26.501-7.737V95.786c7.368-1.524 11.17-2.227 11.408-2.11 2.496-3.81 2.734-6.273.773-7.328z" fill="#FEC369"/><path d="M117.245 96.02l-4.813-1.113c-.178.117-4.219-.82-4.397-.938l-4.457-.528v46.545c.179 9.673-6.595 10.142-15.687 12.252h13.845c10.399 0 19.312 1.055 19.134-9.204v-40.037c-.12-.352-3.328-7.21-3.625-6.976z" fill="#FAAF46"/><path d="M69.828 131.193c7.19-5.51 10.814-8.559 13.131-12.603 3.269-5.687 1.308-10.552-2.852-12.428-3.862-1.759-8.497-.117-10.28 3.752-1.782-3.81-6.417-5.51-10.28-3.752-4.159 1.876-6.12 6.741-2.851 12.428 2.317 4.103 5.942 7.151 13.132 12.603" fill="#FFF"/><path d="M71.254 131.193c6.476-4.983 9.804-7.738 11.884-11.43 2.97-5.16.356-11.842-3.387-13.6-3.506-1.584-9.389 2.696-10.102 3.516-2.02-1.876-5.05-2.403-7.724-1.23-3.744 1.7-5.526 6.096-2.555 11.254 2.08 3.752 5.407 6.566 11.884 11.49" fill="#EE2635"/><path d="M62.816 106.69c-.95 0-1.842.176-2.733.586-1.664.762-2.912 2.11-3.447 3.752-.653 2.051-.297 4.455 1.13 6.917 2.138 3.752 5.525 6.624 12.002 11.607 6.774-5.159 9.983-8.031 12.003-11.607 1.426-2.462 1.842-4.866 1.129-6.917-.535-1.642-1.723-2.99-3.446-3.752-.832-.41-1.783-.586-2.734-.586-2.495 0-4.813 1.465-5.882 3.693-.238.469-.654.762-1.189.762-.475 0-.95-.293-1.188-.762-.832-2.228-3.15-3.693-5.645-3.693zm7.012 25.793c-.298 0-.535-.117-.773-.293-7.606-5.804-11.112-8.852-13.488-13.014-2.258-3.928-1.961-7.035-1.367-8.97.772-2.344 2.436-4.161 4.813-5.275a9.43 9.43 0 0 1 3.803-.82c2.733 0 5.348 1.23 7.012 3.34 1.723-2.051 4.278-3.34 7.011-3.34a9.43 9.43 0 0 1 3.803.82c2.317 1.055 4.04 2.931 4.813 5.276.654 1.934.891 5.041-1.367 8.969-2.376 4.103-5.882 7.21-13.488 13.014-.178.234-.475.293-.772.293zm-12.657-55.28c-.416 0-.832-.234-1.07-.586L38.87 50.062c-1.13-1.817-2.912-3.048-4.992-3.517-2.08-.47-4.219-.117-6.001.996-3.744 2.287-4.873 7.21-2.555 10.904l11.527 18.23c.357.587-.178.763-.772 1.173-.594.352-1.426.176-1.783-.41l-11.17-17.586c-3.09-4.866-1.605-11.314 3.386-14.362a10.535 10.535 0 0 1 7.962-1.29c2.734.645 5.11 2.286 6.596 4.631l18.064 27.786c.356.586-.594.117-1.248.47-.238.058-.475.116-.713.116" fill="#231F20"/><path d="M28.293 66.769a2.15 2.15 0 0 1-.594-.117 1.204 1.204 0 0 1-.535-1.7l5.882-11.255c.297-.645 1.13-.88 1.724-.528.653.293.89 1.114.534 1.7l-5.882 11.255a1.28 1.28 0 0 1-1.13.645m6.121 9.731c-.178 0-.416-.059-.594-.117a1.204 1.204 0 0 1-.535-1.7l5.883-11.255c.297-.645 1.129-.88 1.723-.528.653.293.891 1.114.535 1.7l-5.883 11.255c-.178.352-.654.645-1.129.645m40.049 1.524c-.475 0-.95-.293-1.188-.762-1.842-4.045-5.17-9.496-7.428-12.838-3.387-4.983-6.952-10.141-8.556-17.058 0-.118-.06-.235-.06-.352-.356-.117-.713-.117-1.07-.059-.296.059-.534.176-.831.352.06.176.119.41.119.645 1.07 5.334-1.545 14.01-2.555 17.293-.12.469-.297.938-.297 1.055-.06.645-.595 1.114-1.308 1.114-.713 0-1.307-.586-1.307-1.29 0-.293.06-.527.416-1.641.95-3.107 3.387-11.314 2.496-16.062-.12-.47-.179-.88-.297-1.231-.12-.41 0-.821.297-1.173.713-.82 1.664-1.348 2.733-1.583a5.254 5.254 0 0 1 3.268.528c.357.176.594.469.654.88.06.292.119.586.238.937 1.544 6.449 4.753 11.197 8.2 16.18 2.376 3.458 5.763 8.969 7.665 13.19a1.28 1.28 0 0 1-.654 1.7c-.178.058-.535-.88-.713-.88" fill="#231F20"/><path d="M53.843 48.186c-.534 0-1.07-.352-1.247-.938-1.01-3.576-2.496-4.807-4.397-6.33-1.664-1.349-3.506-2.873-5.17-6.039-.178-.41-.178-.879.06-1.23a1.357 1.357 0 0 1 1.128-.587c.12 0 2.971 0 7.547 1.29 1.188-1.524 3.684-4.162 7.011-4.749.535-.117 1.01.118 1.308.528.297.41.297.938 0 1.348-.12.235-2.555 4.924-.535 14.421.119.703-.297 1.348-1.01 1.524-.713.117-1.367-.293-1.545-.996-1.367-6.331-.892-10.728-.238-13.366-1.426.88-2.674 2.228-3.506 3.459-.297.469-.891.645-1.426.469-2.139-.645-3.922-.997-5.229-1.173 1.07 1.407 2.14 2.286 3.209 3.107 1.96 1.642 4.04 3.283 5.229 7.62.178.704-.238 1.35-.891 1.584-.06.058-.179.058-.298.058" fill="#231F20"/><path d="M53.843 48.186c-.297 0-.594-.117-.89-.352a1.282 1.282 0 0 1-.12-1.817c.773-.82 1.664-1.348 2.734-1.524 1.07-.234 2.198 0 3.268.528.653.351.891 1.113.535 1.7-.357.645-1.13.879-1.724.527-.534-.293-1.07-.351-1.604-.293-.475.117-.891.352-1.307.762-.178.293-.535.47-.892.47m53.479 10.727a1.21 1.21 0 0 1-.654-.176c-.594-.352-.772-1.172-.416-1.759l1.842-2.93c.832-1.349 2.258-2.228 3.744-2.287.416-.059 1.01-.293 1.307-.88.297-.585.119-1.348-.416-1.816a2.266 2.266 0 0 0-.772-.352c-1.01-.117-1.961-.704-2.556-1.583a1.853 1.853 0 0 0-.653-.528c-.594-.234-1.367-.058-1.783.47-.356.468-.475 1.055-.237 1.582.594 1.348.415 2.99-.416 4.338l-2.853 4.514c-.356.586-1.188.762-1.782.41-.594-.351-.773-1.172-.416-1.758l2.852-4.514c.416-.645.475-1.407.238-1.993a4.064 4.064 0 0 1 .594-4.162c1.188-1.407 3.15-1.876 4.872-1.173.713.293 1.308.82 1.783 1.466.178.234.475.41.772.469.773.117 1.486.41 2.08.879 1.426 1.172 1.902 3.107 1.13 4.807a4.249 4.249 0 0 1-3.507 2.403c-.653.059-1.307.47-1.723 1.114l-1.842 2.931c-.297.293-.772.528-1.188.528" fill="#231F20"/><path d="M103.638 56.803c0 .118 0 .235-.06.352 0-.117.06-.234.06-.352zM81.474 78.552h-.178c-.713-.059-1.189-.704-1.13-1.407.298-2.58 1.486-4.924 2.437-6.214 1.426-1.934 4.278-3.81 7.606-6.038 3.803-2.52 8.08-5.393 11.052-8.852l.178-.175a1.306 1.306 0 0 1 1.367-.294c.475.176.772.645.832 1.114l.06 1.524 2.97-1.7c.475-.234 1.07-.234 1.426.118.357.351.594.879.416 1.406-1.307 3.81-2.317 9.732-3.209 14.421-.297 1.642-.594 3.166-.831 4.514-.12.703-.832 1.114-1.486.997-.713-.118-1.129-.821-1.01-1.466.238-1.29.535-2.872.832-4.455.713-3.87 1.485-8.148 2.377-11.724l-2.08 1.172c-.416.235-.891.235-1.248 0-.416-.234-.654-.645-.654-1.055v-.586c-2.911 2.755-6.358 5.041-9.507 7.151-2.97 1.994-5.764 3.87-6.952 5.452-.772.997-1.723 2.873-1.96 4.983-.12.645-.654 1.114-1.308 1.114z" fill="#231F20"/><path d="M72.383 73.745c-.713 0-1.308-.586-1.308-1.29V51.762c0-4.69 3.566-8.148 5.764-9.32V25.5c-.356-.528-.535-1.172-.535-1.876 0-.703.179-1.348.535-1.876 0-1.172.95-2.11 2.14-2.11h4.931c1.189 0 2.14.938 2.14 2.11.356.528.534 1.173.534 1.876 0 .704-.178 1.348-.535 1.876v16.941c2.199 1.173 5.764 4.573 5.764 9.321v14.304c0 .703-.594 1.29-1.307 1.29s-1.307-.587-1.307-1.29V51.762c0-4.338-4.1-7.093-4.813-7.269-.535-.176-.951-.645-.951-1.23v-18.29c0-.41.178-.763.475-.997 0 0 .06-.176.06-.41 0-.235-.06-.352-.06-.41-.356-.235-.594-.646-.594-1.056h-3.862c0 .41-.238.82-.595 1.055 0 .059-.059.176-.059.41 0 .235.06.352.119.41.297.235.475.587.475.997v18.29c0 .586-.416 1.055-.95 1.231-.714.176-4.814 2.931-4.814 7.27v20.692c.06.762-.534 1.29-1.247 1.29" fill="#231F20"/><path d="M84.029 37.517h-5.17c-.713 0-1.307-.586-1.307-1.29 0-.703.594-1.29 1.307-1.29h5.17c.713 0 1.307.587 1.307 1.29 0 .704-.594 1.29-1.307 1.29" fill="#231F20"/><path d="M29.957 50.062a.655.655 0 0 1-.654.645.655.655 0 0 1-.654-.645c0-.352.297-.645.654-.645.356.059.654.293.654.645m-1.011 3.986a.655.655 0 0 1-.653.645.655.655 0 0 1-.654-.645.655.655 0 0 1 1.307 0m8.022 5.452a.655.655 0 0 1-.654.645.655.655 0 0 1-.653-.645c0-.352.297-.645.653-.645.357.059.654.293.654.645m-1.248 5.569a.655.655 0 0 1-.653.645.655.655 0 0 1-.654-.645c0-.352.297-.645.654-.645.356.059.653.293.653.645m7.666 5.334a.655.655 0 0 1-.654.645.655.655 0 0 1-.654-.645.655.655 0 0 1 1.307 0" fill="#FEBC11"/><path d="M59.013 64.131a.655.655 0 0 1-.654.645.655.655 0 0 1-.653-.645.655.655 0 0 1 1.307 0" fill="#D7EAF9"/><path d="M34.472 32.124c0 .762-.594 1.348-1.366 1.348-.773 0-1.367-.586-1.367-1.348 0-.762.594-1.348 1.367-1.348.772 0 1.366.645 1.366 1.348" fill="#EE2635"/><path d="M17.419 30.776c0 .762-.594 1.348-1.367 1.348-.772 0-1.366-.586-1.366-1.348 0-.762.594-1.348 1.366-1.348.773 0 1.367.644 1.367 1.348" fill="#D7EAF9"/><path d="M96.745 33.648c0 .762-.594 1.349-1.367 1.349-.772 0-1.366-.587-1.366-1.349s.594-1.348 1.366-1.348c.773 0 1.367.586 1.367 1.348" fill="#FEDA00"/><path d="M63.767 1.524c0 .762-.595 1.348-1.367 1.348s-1.367-.586-1.367-1.348c0-.762.595-1.348 1.367-1.348s1.367.586 1.367 1.348m56.568 59.735c0 .762-.594 1.348-1.367 1.348-.772 0-1.367-.586-1.367-1.348 0-.762.595-1.349 1.367-1.349.773 0 1.367.587 1.367 1.349M57.29 67.941a.655.655 0 0 1-.654.645.655.655 0 0 1-.653-.645.655.655 0 0 1 1.307 0m4.16.293a.655.655 0 0 1-.654.645.655.655 0 0 1-.654-.645.655.655 0 0 1 1.307 0m-2.258 3.049a.655.655 0 0 1-.653.645.655.655 0 0 1-.654-.645.655.655 0 0 1 1.307 0m5.289.879a.655.655 0 0 1-.654.645.655.655 0 0 1-.654-.645.655.655 0 0 1 1.307 0" fill="#D7EAF9"/><path d="M111.422 31.42l-.476-.468.476-.47a.911.911 0 0 0 0-1.289.942.942 0 0 0-1.308 0l-.475.47-.475-.47a.942.942 0 0 0-1.307 0 .911.911 0 0 0 0 1.29l.475.469-.475.469a.911.911 0 0 0 0 1.29.942.942 0 0 0 1.307 0l.475-.47.475.47a.942.942 0 0 0 1.308 0 .911.911 0 0 0 0-1.29" fill="#5FBAE9"/><path d="M57.765 12.017l-.475-.469.475-.469a.911.911 0 0 0 0-1.29.942.942 0 0 0-1.307 0l-.475.47-.476-.47a.942.942 0 0 0-1.307 0 .911.911 0 0 0 0 1.29l.475.47-.475.468a.911.911 0 0 0 0 1.29.942.942 0 0 0 1.307 0l.476-.47.475.47a.942.942 0 0 0 1.307 0 .911.911 0 0 0 0-1.29" fill="#FEDA00"/><path d="M26.213 19.403l-.475-.469.475-.468a.911.911 0 0 0 0-1.29.942.942 0 0 0-1.307 0l-.476.469-.475-.47a.942.942 0 0 0-1.307 0 .911.911 0 0 0 0 1.29l.475.47-.475.468a.911.911 0 0 0 0 1.29.942.942 0 0 0 1.307 0l.475-.469.476.47a.942.942 0 0 0 1.307 0 .911.911 0 0 0 0-1.29m101.074 25.324l-.475-.47.475-.468a.911.911 0 0 0 0-1.29.942.942 0 0 0-1.307 0l-.476.469-.475-.469a.942.942 0 0 0-1.307 0 .911.911 0 0 0 0 1.29l.475.469-.475.469a.911.911 0 0 0 0 1.29.942.942 0 0 0 1.307 0l.475-.47.476.47a.942.942 0 0 0 1.307 0 .911.911 0 0 0 0-1.29" fill="#EE2635"/><path d="M9.278 41.269l-.475-.469.475-.469a.911.911 0 0 0 0-1.29.942.942 0 0 0-1.307 0l-.475.47-.476-.47a.942.942 0 0 0-1.307 0 .911.911 0 0 0 0 1.29l.475.469-.475.469a.911.911 0 0 0 0 1.29.942.942 0 0 0 1.307 0l.476-.47.475.47a.942.942 0 0 0 1.307 0 .911.911 0 0 0 0-1.29" fill="#5FBAE9"/><path d="M104.113 12.076c-1.842 0-3.327 1.465-3.327 3.283 0 1.817 1.485 3.282 3.327 3.282 1.842 0 3.328-1.465 3.328-3.282 0-1.818-1.545-3.283-3.328-3.283zm0 7.68c-2.436 0-4.456-1.935-4.456-4.397 0-2.404 1.96-4.397 4.456-4.397 2.436 0 4.457 1.935 4.457 4.397-.06 2.462-2.02 4.396-4.457 4.396zM12.606 55.162c-.892 0-1.664.704-1.664 1.641 0 .88.713 1.642 1.664 1.642.891 0 1.664-.704 1.664-1.642-.06-.937-.773-1.64-1.664-1.64zm0 4.28c-1.486 0-2.734-1.232-2.734-2.697 0-1.466 1.248-2.697 2.734-2.697 1.485 0 2.733 1.231 2.733 2.697 0 1.524-1.248 2.696-2.733 2.696z" fill="#FEDA00"/><path d="M123.722 20.107c-.892 0-1.664.703-1.664 1.641 0 .938.713 1.642 1.664 1.642.891 0 1.664-.704 1.664-1.642s-.714-1.641-1.664-1.641zm0 4.338c-1.486 0-2.734-1.231-2.734-2.697 0-1.465 1.248-2.696 2.734-2.696 1.485 0 2.733 1.23 2.733 2.696.06 1.466-1.188 2.697-2.733 2.697z" fill="#D7EAF9"/><path d="M77.136 52.348h-.178a1.245 1.245 0 0 1-.357-.234c-.118-.117-.059-.293-.059-.41.594-1.935 1.723-3.4 2.615-4.28a.543.543 0 0 1 .415-.176c.12 0 .298.059.357.176.238.235.238.528 0 .762-.772.82-1.842 2.11-2.317 3.87 0 .116-.238.292-.476.292m3.922-5.334c-.178 0-.357-.059-.416-.235a.839.839 0 0 1-.119-.41c0-.117.119-.293.238-.352l.535-.351c.118-.06.178-.06.297-.06.178 0 .356.118.475.235.06.118.119.293.06.41-.06.118-.12.235-.238.352-.119.118-.297.176-.476.294-.178.117-.297.117-.356.117" fill="#FFF"/><path d="M114.096 153H26.45c-4.16 0-7.547-3.341-7.547-7.445v-43.438c0-4.396 3.328-8.03 7.784-8.5l8.2-.82a1.416 1.416 0 0 0 1.308-1.407v-3.635c0-.293-.179-.586-.416-.703l-.892-.528a5.065 5.065 0 0 1-2.614-4.455v-3.693c0-1.29 1.07-2.345 2.377-2.345h71.363c1.308 0 2.377 1.055 2.377 2.345v3.752a5.042 5.042 0 0 1-2.614 4.396l-.891.528c-.238.117-.416.41-.416.703v3.635c0 .703.534 1.348 1.307 1.407l8.081.82a8.527 8.527 0 0 1 7.784 8.5v43.438c0 4.104-3.387 7.445-7.546 7.445zM34.829 78.61v3.518c0 .938.475 1.758 1.307 2.227l.892.528a3.32 3.32 0 0 1 1.723 2.93v3.635a3.925 3.925 0 0 1-3.625 3.928l-8.2.82c-3.09.294-5.467 2.873-5.467 5.98v43.438c0 2.696 2.199 4.924 4.992 4.924h87.645c2.733 0 4.991-2.169 4.991-4.924v-43.438c0-3.107-2.377-5.628-5.467-5.98l-8.08-.82a3.925 3.925 0 0 1-3.626-3.928v-3.634c0-1.173.654-2.345 1.724-2.931l.891-.528a2.508 2.508 0 0 0 1.307-2.227v-3.576H34.83v.058z" fill="#231F20"/></g></svg>