<svg width="47" height="45" xmlns="http://www.w3.org/2000/svg"><g fill="#FEC369"><path d="M14.185 14.76c.146.16.337.24.529.24.191 0 .383-.08.528-.24a.876.876 0 0 0 0-1.16c-.759-.833-.759-2.187 0-3.02a3.941 3.941 0 0 0 1.01-2.67 3.939 3.939 0 0 0-1.01-2.67.702.702 0 0 0-1.057 0 .876.876 0 0 0 0 1.16c.368.403.571.94.571 1.51a2.23 2.23 0 0 1-.571 1.51c-1.343 1.472-1.343 3.868 0 5.34zm17.57 0c.146.16.337.24.529.24.191 0 .383-.08.529-.24a.876.876 0 0 0 0-1.16c-.76-.833-.76-2.187 0-3.02a3.941 3.941 0 0 0 1.01-2.67 3.943 3.943 0 0 0-1.01-2.67.702.702 0 0 0-1.058 0 .876.876 0 0 0 0 1.16c.368.403.571.94.571 1.51 0 .57-.202 1.107-.571 1.51-1.343 1.472-1.343 3.868 0 5.34zm-8.785-5c.146.16.337.24.529.24.191 0 .383-.08.528-.24a.876.876 0 0 0 0-1.16c-.759-.833-.759-2.187 0-3.02a3.941 3.941 0 0 0 1.01-2.67 3.939 3.939 0 0 0-1.01-2.67.702.702 0 0 0-1.057 0 .876.876 0 0 0 0 1.16c.368.403.571.94.571 1.51 0 .57-.202 1.107-.571 1.51-1.343 1.472-1.343 3.868 0 5.34zM19.68 21.5a.824.824 0 0 0 .175-.02 15.876 15.876 0 0 1 3.501-.388h.01a.794.794 0 0 0 .793-.795.794.794 0 0 0-.792-.797h-.011c-1.302 0-2.597.144-3.85.428a.796.796 0 0 0 .174 1.572zM7.677 35.486a.7.7 0 0 0 .143.014.803.803 0 0 0 .777-.682c.822-4.736 3.539-8.95 7.267-11.271a.856.856 0 0 0 .278-1.14.77.77 0 0 0-1.084-.291c-4.117 2.563-7.113 7.2-8.017 12.403-.079.452.206.885.636.967z"/><path d="M43.572 33.964c-1.42-8.778-7.917-15.754-16.189-17.443.013-.132.034-.265.034-.396C27.417 13.85 25.66 12 23.5 12s-3.917 1.85-3.917 4.125c0 .131.02.264.034.396-8.272 1.69-14.77 8.665-16.19 17.443C1.792 34.94 0 36.376 0 37.988 0 42.183 12.151 45 23.5 45S47 42.183 47 37.988c0-1.612-1.79-3.048-3.428-4.024zM21.155 16.268a2.184 2.184 0 0 1-.005-.142c0-1.365 1.054-2.475 2.35-2.475s2.35 1.11 2.35 2.475c0 .047-.002.094-.005.142-.037-.005-.073-.006-.11-.01-.269-.032-.54-.054-.812-.074-.1-.007-.2-.018-.3-.024a19.435 19.435 0 0 0-1.122-.033c-.377 0-.75.012-1.122.033-.1.006-.2.017-.3.024-.273.02-.544.043-.813.074-.038.004-.074.005-.111.01zm-.476 1.73a18.155 18.155 0 0 1 1.53-.17 18.255 18.255 0 0 1 2.844.02c.425.037.848.084 1.269.15 8.16 1.3 14.614 8.145 15.785 16.76.036.266.065.531.091.797.009.091.02.182.028.274.03.365.054.73.065 1.096a79.486 79.486 0 0 1-37.58 0c.012-.365.034-.73.064-1.096.008-.092.019-.183.028-.274.026-.267.055-.532.091-.796 1.17-8.616 7.624-15.462 15.785-16.76zM23.5 43.35c-13.392 0-21.933-3.522-21.933-5.362 0-.316.371-1.013 1.616-1.92-.003.046-.001.092-.004.14a23.22 23.22 0 0 0-.046 1.367v.65l.601.153A80.757 80.757 0 0 0 23.5 40.83c6.65 0 13.3-.818 19.766-2.452l.6-.153v-.65c0-.46-.018-.915-.045-1.368-.003-.047-.001-.093-.004-.14 1.245.908 1.616 1.605 1.616 1.92 0 1.841-8.541 5.363-21.933 5.363z"/></g></svg>