<svg width="42" height="42" xmlns="http://www.w3.org/2000/svg"><g fill="#FEC369"><path d="M33.142 3.842a9.602 9.602 0 0 0-4.061.325C27.167 1.547 24.185 0 21 0c-3.186 0-6.168 1.548-8.082 4.167a9.638 9.638 0 0 0-4.06-.325C3.85 4.515.042 8.96 0 14.182c-.04 4.886 3.12 9.122 7.682 10.3 1.083.28 1.883 1.242 1.989 2.395l.606 6.613.346 3.778c.148 1.613 2.115 2.72 2.942 3.116A17.888 17.888 0 0 0 21 42c2.44 0 4.88-.497 7.152-1.489.508-.218 3.052-1.4 3.222-3.243l.346-3.778.607-6.613c.105-1.153.905-2.116 1.988-2.395 4.565-1.179 7.724-5.414 7.685-10.3-.044-5.222-3.851-9.667-8.858-10.34zm-5.547 35.283a16.521 16.521 0 0 1-13.195-.002c-.903-.39-2.27-1.295-2.334-1.997l-.09-.975c2.864 1.437 5.892 2.164 9.023 2.164 3.13 0 6.159-.727 9.023-2.164l-.09.975c-.063.702-1.43 1.607-2.337 1.999zm6.372-16.102c-1.677.433-2.916 1.925-3.08 3.711l-.701 7.635c-2.9 1.616-5.987 2.443-9.186 2.443-3.2 0-6.287-.827-9.187-2.443l-.7-7.635c-.165-1.786-1.403-3.278-3.081-3.711-3.91-1.01-6.618-4.64-6.584-8.828C1.485 9.72 4.75 5.91 9.043 5.333a8.26 8.26 0 0 1 1.096-.075c.95 0 1.898.167 2.826.498l.525.187.311-.476C15.422 2.986 18.113 1.503 21 1.503c2.886 0 5.577 1.483 7.198 3.965l.312.476.524-.187a8.281 8.281 0 0 1 3.922-.424c4.293.577 7.558 4.386 7.595 8.862.034 4.189-2.673 7.819-6.584 8.828z"/><path d="M13.61 25.7a.741.741 0 0 0-.647.826l.745 5.93a.743.743 0 0 0 .831.644.741.741 0 0 0 .647-.827l-.745-5.93a.749.749 0 0 0-.831-.644zm5.38 1.476c-.37 0-.67.332-.67.742v5.93c0 .409.3.74.67.74.37 0 .67-.331.67-.74v-5.93c0-.41-.3-.742-.67-.742zm9.4-1.476a.748.748 0 0 0-.831.643l-.745 5.93a.742.742 0 0 0 .74.833c.37 0 .691-.274.738-.65l.745-5.93a.741.741 0 0 0-.647-.827zm-5.38 1.476c-.37 0-.67.332-.67.742v5.93c0 .409.3.74.67.74.37 0 .67-.331.67-.74v-5.93c0-.41-.3-.742-.67-.742zM11.787 7.412c-6.103-.052-7.291 4.979-7.302 5.03a.74.74 0 0 0 .715.9.733.733 0 0 0 .713-.583c.009-.04.886-3.95 5.858-3.865.392-.028.735-.325.74-.733a.737.737 0 0 0-.724-.749zm5.02-2.707a.668.668 0 0 0-.127.959.726.726 0 0 0 .992.123c.03-.022 2.987-2.173 6.236.019a.72.72 0 0 0 .986-.169.668.668 0 0 0-.175-.95c-3.276-2.209-6.608-.953-7.912.018z"/></g></svg>