<svg width="35" height="46" xmlns="http://www.w3.org/2000/svg"><g fill="#FEC369"><path d="M23.242 20.456c.08.03.163.044.243.044.316 0 .61-.216.717-.56.237-.758.996-1.165 1.691-.908 1.486.548 3.108-.321 3.612-1.941.135-.43-.077-.9-.474-1.047-.397-.146-.826.085-.96.516-.237.759-.995 1.166-1.692.908-1.484-.545-3.107.322-3.612 1.941-.134.43.079.9.475 1.047zm2.272-5.5c.08.03.163.044.244.044.315 0 .61-.216.717-.56a1.41 1.41 0 0 1 .673-.836c.32-.171.68-.196 1.018-.071 1.486.547 3.107-.321 3.612-1.941.135-.431-.078-.9-.474-1.047-.396-.149-.826.085-.96.516-.237.759-.993 1.166-1.691.908a2.616 2.616 0 0 0-2.175.155c-.682.367-1.192 1.001-1.437 1.785-.136.432.077.9.473 1.047zm1.855-5.999a.81.81 0 0 0 1.03-.514 1.055 1.055 0 0 1 1.34-.666 2.645 2.645 0 0 0 2.047-.135 2.683 2.683 0 0 0 1.352-1.557.822.822 0 0 0-.507-1.04.81.81 0 0 0-1.031.513c-.091.27-.28.487-.533.613a1.037 1.037 0 0 1-.806.052 2.68 2.68 0 0 0-3.4 1.692.823.823 0 0 0 .508 1.042z"/><path d="M32.927 20.427a.988.988 0 0 0-.443-.172C34.03 15.028 34.877 9.907 35 5.03c.038-1.534-.683-3.582-2.135-4.53-.696-.456-1.838-.832-3.32-.038-2.324 1.248-3.985 4.917-5.32 7.867l-.227.5c-.295-1.41-1.19-2.618-2.465-3.247-.3-1.503-1.445-2.68-2.884-2.985a2.589 2.589 0 0 0-.059-.25C18.293 1.293 17.4.5 16.366.372a2.559 2.559 0 0 0-1.653.353 2.734 2.734 0 0 0-1.375-.373c-1.353 0-2.489.982-2.785 2.296-1.479.42-2.563 1.832-2.575 3.474-1.687.453-2.915 2.04-2.915 3.927 0 .5.09.995.263 1.462a3.261 3.261 0 0 0-.68 2.006c0 .444.088.871.253 1.266-.777-.882-1.87-1.603-3.098-1.556-.43.014-.767.388-.754.834.013.438.359.785.777.785l.075-.002c.73 0 1.407.502 1.9 1.085-1.234.37-2.72.972-3.415 2.334-.417.821-.466 1.83-.188 2.984a1.449 1.449 0 0 0-.194.795l1.323 19.58C1.446 44.077 3.39 46 5.752 46h21.832c2.361 0 4.306-1.923 4.426-4.363l1.357-20.26v-.015a1.064 1.064 0 0 0-.44-.935zm-8.295-9.282c.308-.599.644-1.34 1-2.126 1.168-2.584 2.77-6.122 4.624-7.118.676-.363 1.259-.37 1.782-.03.901.588 1.431 2.075 1.406 3.117-.12 4.785-.96 9.822-2.498 14.97-.05.17-.162.511-.322.98l-1.325.613a.713.713 0 0 0-.084.046 2.389 2.389 0 0 1-1.241.362 2.386 2.386 0 0 1-1.24-.362l-.555-.346a3.896 3.896 0 0 0-2.068-.598l-.026.002a3.888 3.888 0 0 0-2.094.596l-.553.346c-.31.193-.65.287-.996.327l.062-.209a60.596 60.596 0 0 1 1.588-4.807c.096-.257.19-.516.29-.77a54.919 54.919 0 0 1 2.25-4.993zm-9.915 1.92c.09-.122.18-.24.264-.355l.001-.003a1.799 1.799 0 0 0 .308-1.468l3.246-.74c.022.104.046.207.083.302.145.371.405.68.767.895.118.068.242.136.37.206l.315.178.152.085c.093.055.182.115.273.174.077.05.153.1.228.154a4.31 4.31 0 0 1 .46.399 3.21 3.21 0 0 1 .544.725c-.33.758-.64 1.53-.94 2.31-.047.12-.096.238-.142.359-.853.225-1.676.646-2.694 1.4-1.281.948-2.236 1.2-3.808.962l-.472-2.25c-.32-1.52.374-2.442 1.045-3.333zm3.857-4.916a.309.309 0 0 1 .06-.007.33.33 0 0 1 .317.263.34.34 0 0 1-.245.399l-4.296.978a.326.326 0 0 1-.383-.256.34.34 0 0 1 .246-.398l2.283-.52 2.018-.46zm-2.514 12.52c-.059.004-.119.006-.178.013a3.867 3.867 0 0 0-1.24.342l-.148-.708c.224.02.447.039.656.039 1.357 0 2.449-.42 3.704-1.35a9.475 9.475 0 0 1 1.078-.699c-.072.212-.143.422-.212.634-.05.153-.103.302-.151.455a61.42 61.42 0 0 0-.65 2.18l-.517-.323a3.896 3.896 0 0 0-2.067-.597l-.03.001c-.082-.001-.163.009-.245.013zM6.757 12.3l.51-.438-.33-.593a2.515 2.515 0 0 1-.317-1.22c0-1.31.987-2.38 2.247-2.435l.944-.042-.22-.956a2.072 2.072 0 0 1-.056-.468c0-1.043.782-1.921 1.78-2l.72-.057v-.806c.022-.727.598-1.313 1.304-1.313.406 0 .697.193.868.355l.546.512.522-.537c.24-.246.569-.361.908-.32.417.05.793.389.915.823.04.146.053.287.036.43l-.09.904h.875c1.118 0 2.052.91 2.13 2.07l.034.532.483.177c1.216.444 2.016 1.641 1.988 2.981a3.003 3.003 0 0 1-.51 1.607c-.52-.46-1.08-.77-1.552-1.028-.122-.067-.24-.132-.36-.2-.033-.02-.073-.054-.087-.14a.475.475 0 0 1 .108-.359c.339-.41.475-.968.365-1.495l-.094-.446a1.715 1.715 0 0 0-.726-1.084 1.59 1.59 0 0 0-1.247-.233l-.209.048h-.007l-2.282.52-2.228.506a1.646 1.646 0 0 0-1.04.755c-.24.388-.32.85-.225 1.3l.047.22v.006l.046.219c.113.54.473.993.962 1.212a.481.481 0 0 1 .258.261c.02.06.008.09-.037.169-.077.108-.16.217-.245.33-.085.113-.174.232-.264.355l-.09.127c-.064.091-.129.184-.193.281-.035.053-.068.107-.102.162a6.932 6.932 0 0 0-.268.47 5.598 5.598 0 0 0-.163.353c-.023.052-.047.102-.067.156-.068.176-.13.36-.177.555-.008.031-.011.064-.018.096a4.579 4.579 0 0 0-.087.514c-.008.071-.01.146-.014.22-.007.095-.018.185-.018.285l-.01-.012-.031-.042a9.57 9.57 0 0 0-.537-.667 7.468 7.468 0 0 0-.344-.363c-.037-.036-.075-.076-.113-.112a5.425 5.425 0 0 0-.438-.369l-.125-.086a4.163 4.163 0 0 0-.496-.3 3.307 3.307 0 0 0-.35-.152c-.039-.015-.078-.034-.117-.047a3.14 3.14 0 0 0-.385-.101c-.014-.004-.03-.002-.044-.004-.026-.005-.052-.016-.079-.02-.09-.014-.175-.008-.264-.014-.062-.004-.124-.018-.186-.018-.019 0-.038.005-.057.005-.12.001-.238.016-.355.031-.058.008-.117.013-.175.025-.153.029-.302.07-.449.118l-.067.02a4.8 4.8 0 0 0-1.098.565 1.598 1.598 0 0 1-.108-.58 1.6 1.6 0 0 1 .555-1.219zM1.76 19.02c.33-.645 1.128-1.137 2.515-1.55a4.16 4.16 0 0 0 1.739-1.038c.221-.221.43-.408.63-.578.627-.53 1.167-.819 1.656-.884l.033-.004a1.5 1.5 0 0 1 .45.014c.038.007.077.02.116.031.073.019.144.037.216.067.047.019.094.047.141.07.068.034.135.065.202.108.053.033.106.076.16.114.062.046.125.088.189.141.059.05.118.11.177.166.06.055.118.106.178.169.065.069.131.149.197.226.054.062.107.12.162.187.074.092.148.197.223.3.048.064.094.122.142.191.084.123.17.26.256.396.037.06.075.113.112.175.124.203.248.419.374.649.572 1.051.762 2.605.513 3.958a2.355 2.355 0 0 1-.964-.33l-.555-.347a3.896 3.896 0 0 0-2.067-.598l-.027.002a3.888 3.888 0 0 0-2.093.596l-.27.168c-.47.294-.998.442-1.526.447a2.916 2.916 0 0 1-1.525-.447l-1.046-.654a1.3 1.3 0 0 0-.44-.173c-.121-.64-.078-1.158.132-1.571zm28.7 22.52c-.078 1.593-1.34 2.841-2.873 2.841H5.754c-1.533 0-2.794-1.248-2.874-2.857L1.586 22.385l.677.422a4.431 4.431 0 0 0 2.378.679 4.43 4.43 0 0 0 2.378-.679l.27-.168a2.38 2.38 0 0 1 1.24-.363c.43.005.859.123 1.242.363l.555.346a3.877 3.877 0 0 0 2.282.582c.07-.004.14-.004.21-.01.009 0 .017-.006.026-.006a3.891 3.891 0 0 0 1.533-.522c.045-.017.093-.018.135-.044l.555-.346a2.38 2.38 0 0 1 1.24-.363c.43.005.858.123 1.242.363l.554.346a3.903 3.903 0 0 0 1.903.586l.04.002c.227.007.454 0 .68-.033.129-.017.254-.051.381-.081.061-.015.123-.03.184-.048.345-.1.683-.23.998-.426l.555-.347a2.38 2.38 0 0 1 1.24-.362c.43.004.858.123 1.242.362l.554.347c.643.4 1.364.597 2.084.594l.035.002a3.9 3.9 0 0 0 2.025-.57l1.526-.706c.033-.015.056-.044.086-.063l.12-.056L30.46 41.54z"/><path d="M4.848 34.5h5.304a.754.754 0 0 0 .757-.75c0-.415-.34-.75-.757-.75H4.848a.754.754 0 0 0-.757.75c0 .415.34.75.757.75zm.028 3h7.066c.434 0 .785-.335.785-.75s-.351-.75-.785-.75H4.876c-.433 0-.785.335-.785.75s.352.75.785.75zm8.446 2H4.86a.76.76 0 0 0-.77.75c0 .415.346.75.77.75h8.462a.76.76 0 0 0 .769-.75.76.76 0 0 0-.77-.75zm4.518 0h-1.59c-.44 0-.795.335-.795.75s.356.75.795.75h1.59c.44 0 .796-.335.796-.75s-.356-.75-.795-.75z"/></g></svg>